<svg width="161" height="72" viewBox="0 0 161 72" fill="none" xmlns="http://www.w3.org/2000/svg">
<path id="Vector" d="M160.068 12.7824C158.793 9.68053 156.498 7.5945 153.43 6.35115C150.586 5.18535 147.813 5.22411 145.158 6.84486L144.55 7.21968C143.796 4.07641 141.852 2.02397 138.954 0.829736C136.056 -0.364502 133.236 -0.250763 130.569 1.04946C129.899 1.35189 129.155 2.14805 128.475 2.9287C128.236 3.22264 128.055 3.55955 127.942 3.92131C127.873 4.12209 127.845 4.33477 127.86 4.54665C127.874 4.75853 127.932 4.96526 128.028 5.15445C128.125 5.34365 128.259 5.51143 128.421 5.64776C128.584 5.78409 128.773 5.88617 128.976 5.94789L131.062 6.60706L131.217 6.91983C131.343 7.01616 131.437 7.14744 131.489 7.29723C131.685 7.81421 131.946 8.27691 132.246 8.92832C130.437 9.54611 129.188 11.3814 128.263 12.935C128.064 13.2736 127.872 13.6148 127.684 13.9534C126.148 16.316 126.668 18.4305 127.043 19.3818C127.115 19.5658 127.201 19.7439 127.301 19.9143C127.461 20.162 127.657 20.3842 127.883 20.5734C128.397 20.9826 129.049 21.1783 129.703 21.12C130.358 21.0618 130.964 20.7541 131.398 20.2607C131.892 19.7437 132.244 19.0768 132.691 18.4254C133.678 18.8751 134.658 18.8183 135.534 17.6499C135.793 19.1052 136.568 20.1831 135.754 21.6307C135.577 21.9415 135.424 22.2656 135.296 22.6C135.219 22.8068 135.141 23.0214 135.071 23.2359C134.984 23.4944 134.896 23.7684 134.813 24.0372C134.813 24.0812 134.795 24.1355 134.785 24.182L134.694 24.4974C134.675 24.5665 134.653 24.6347 134.627 24.7016C134.586 24.8644 134.544 25.035 134.495 25.1979C134.446 25.3607 134.397 25.5494 134.337 25.7149C134.278 25.8803 134.211 26.1284 134.151 26.3249C134.04 26.7411 133.939 27.1547 133.831 27.5605C133.779 27.7673 133.738 27.9741 133.678 28.1809C133.446 29.189 133.464 29.1993 132.29 29.052C132.331 28.473 132.365 27.8862 132.406 27.3072C132.443 26.8548 132.499 26.4205 132.546 25.9682C132.565 25.7473 132.555 25.5249 132.518 25.3064C132.493 25.17 132.457 25.0359 132.409 24.9058C132.359 24.7763 132.298 24.6509 132.228 24.531C132.005 24.187 131.698 23.9054 131.337 23.7127C130.975 23.5201 130.57 23.4227 130.16 23.4298C128.092 23.3962 126.024 23.3807 123.956 23.4298C123.543 23.4186 123.135 23.5176 122.772 23.7167C122.548 23.8429 122.35 24.0104 122.188 24.2104C121.903 24.5644 121.693 24.9724 121.57 25.4098C121.511 25.6063 121.433 25.8053 121.346 26.0638C121.317 26.1362 121.289 26.2344 121.25 26.3223C120.503 23.9132 118.634 23.3057 116.571 23.1454C115.087 23.0769 113.599 23.1132 112.12 23.254C111.028 23.3552 109.991 23.7801 109.142 24.4741C109.067 24.413 108.997 24.3474 108.93 24.2776C108.658 23.9368 108.309 23.6653 107.912 23.4856C107.515 23.3058 107.081 23.2229 106.645 23.2437C105.828 23.2437 105.022 23.2592 104.207 23.2437C103.626 23.2158 103.048 23.3425 102.532 23.6107C102.45 23.6624 102.367 23.7245 102.274 23.7762C102.181 23.8279 102.116 23.908 102.041 23.9881C100.666 22.812 99.0143 23.3522 97.4659 23.2592C96.9489 23.2281 96.4319 23.4065 95.8943 23.4841C95.7867 23.5228 95.6723 23.5387 95.5582 23.5306C94.3123 22.9283 92.9733 23.223 91.6808 23.1816C90.0446 23.1222 88.4032 23.1635 86.7695 23.1506C86.679 23.1506 86.5808 23.1506 86.4903 23.1506C86.2416 23.161 85.9947 23.1974 85.7536 23.2592C85.6406 23.2849 85.5306 23.3221 85.4253 23.3703C85.2607 23.4467 85.1062 23.543 84.9652 23.6573C84.8669 23.7304 84.7798 23.8175 84.7067 23.9157C84.6148 24.028 84.5359 24.1502 84.4715 24.2802C84.3952 24.422 84.3287 24.5688 84.2724 24.7197C84.2233 24.8644 84.182 25.035 84.1406 25.2056L83.4013 28.61C83.3806 28.6824 83.3703 28.7444 83.3522 28.7883C83.34 28.8178 83.3296 28.848 83.3212 28.8788C83.2871 28.9474 83.2331 29.0041 83.1662 29.0415C83.0993 29.0789 83.0227 29.0951 82.9464 29.0882C81.46 29.0882 79.984 29.0701 78.4253 29.0675C78.5029 28.0904 78.5261 27.1495 78.6838 26.2241C78.9294 24.6731 77.6085 23.1532 75.7887 23.0886C74.0878 23.0291 72.3818 23.0601 70.6886 23.0731C69.6546 23.0731 69.1041 23.3703 68.0753 24.3397C67.4058 23.2101 66.3434 22.9205 65.1078 22.9981C64.4822 23.0395 63.8773 22.9981 63.2518 22.9981C62.1661 22.9826 61.8637 23.0731 60.9408 23.7296C59.8009 22.6336 58.3559 23.0317 56.9911 22.9981C56.2389 22.98 55.4815 23.1894 54.7189 23.2799C54.6498 23.3063 54.5756 23.3169 54.5018 23.3109C52.8113 22.7344 51.0561 23.0808 49.3319 23.0188C47.5225 22.949 45.713 22.9929 43.9036 22.9955C43.32 22.9602 42.7431 23.1354 42.2777 23.4892C42.1739 23.5717 42.0779 23.6634 41.9907 23.7632C41.9072 23.8702 41.832 23.9834 41.7658 24.1019C41.6169 24.3742 41.5114 24.6681 41.4531 24.973C41.3626 25.3607 41.2902 25.7485 41.1946 26.144C41.1636 26.2706 41.1429 26.4024 41.1041 26.5317L41.0834 26.5963C41.0831 26.6429 41.0724 26.6887 41.0524 26.7307C40.9758 26.9729 40.9425 27.2267 40.9542 27.4804C40.9655 27.7748 41.0361 28.0639 41.1618 28.3304C41.2875 28.5969 41.4657 28.8353 41.6857 29.0313C39.9021 29.0313 38.2426 29.0313 36.5934 29.0132C36.5248 28.9938 36.4653 28.9508 36.4254 28.8917C36.4117 28.8652 36.3943 28.8409 36.3737 28.8194C36.3556 28.7806 36.3375 28.7444 36.322 28.7082C36.3061 28.6736 36.2948 28.6371 36.2884 28.5996C36.2777 28.5825 36.2715 28.5629 36.2703 28.5428C36.2858 28.2843 36.3116 28.0025 36.3272 27.7389C36.3427 27.4752 36.3763 27.2064 36.3995 26.9427C36.4228 26.7617 36.4461 26.5911 36.459 26.4102C36.6658 24.668 35.4612 23.1687 33.6957 23.1273C31.9302 23.086 30.2086 23.0756 28.4767 23.1067C27.8792 23.0926 27.2904 23.2515 26.781 23.5642C26.5836 23.6979 26.4053 23.8579 26.2511 24.0398C25.9052 24.4989 25.6387 25.0126 25.4627 25.5598C25.1215 26.5756 24.788 27.5915 24.4287 28.579C24.3819 28.685 24.3107 28.7785 24.2208 28.8517C24.131 28.925 24.0251 28.9759 23.9117 29.0003C22.9527 29.0494 21.9834 29.0184 20.9313 29.0003C21.0967 28.2248 21.2673 27.4881 21.4121 26.7566C21.8541 24.7119 20.6237 23.1584 18.5118 23.1144C17.8966 23.1015 17.2814 23.1144 16.6636 23.1144C16.609 23.1157 16.5546 23.1209 16.5007 23.1299C15.0403 23.2023 14.1149 24.014 13.8072 25.4564L13.6237 26.3378C13.5539 26.5963 13.4996 26.8781 13.4402 27.1417L13.3781 27.4209C13.3084 27.7544 13.236 28.0775 13.1817 28.4109L13.161 28.5014C13.1517 28.5447 13.1387 28.587 13.1222 28.6281C13.1222 28.6643 13.0938 28.7004 13.0835 28.7366C12.9801 28.9331 12.8043 29.0287 12.4605 29.0184C11.1034 28.977 9.72564 29.0055 8.35563 29.0184C7.34234 29.0184 7.46382 28.8711 7.36301 29.9541C6.98952 33.7024 6.94541 37.4762 7.23118 41.2322C7.24968 41.3824 7.24968 41.5343 7.23118 41.6845C7.22888 41.6987 7.22153 41.7116 7.2105 41.7207C7.17389 41.823 7.1013 41.9085 7.00629 41.9611L6.97786 41.9766C5.45792 43.7344 4.96937 44.8201 4.82978 45.35C4.81711 45.4985 4.79553 45.6461 4.76516 45.792C3.2142 53.128 1.64428 60.4641 0.0554131 67.8001C-0.0120966 68.0307 -0.0180291 68.2749 0.0382081 68.5084C0.0944454 68.742 0.210888 68.9568 0.375942 69.1313C1.08163 69.9456 1.74079 70.8245 2.44389 71.6284L6.66767 71.5689L15.8597 71.4345L120.875 69.9172C121.819 69.9172 122.752 69.8913 123.685 69.9172C123.785 69.9272 123.882 69.9596 123.969 70.0119C124.055 70.0642 124.128 70.1352 124.184 70.2196C124.959 71.3259 125.967 71.7705 127.312 71.6723C128.426 71.5922 129.55 71.6387 130.672 71.6465C130.758 71.656 130.845 71.656 130.93 71.6465C131.129 71.5974 131.347 71.6103 131.548 71.5612C131.75 71.5058 131.943 71.425 132.125 71.3208C132.458 71.0994 132.738 70.8062 132.944 70.4626C133.112 70.2403 133.309 70.0283 133.477 69.806C134.252 68.772 134.511 67.4796 134.769 66.2414C134.914 65.5279 135.066 64.8248 135.229 64.114C135.627 62.3381 135.987 60.5623 136.457 58.8071C136.953 56.9615 137.561 55.1365 138.085 53.3012C138.184 52.9781 138.323 52.8721 138.649 52.8902C139.132 52.9186 139.616 52.9186 140.099 52.8902C140.808 52.8496 141.484 52.576 142.022 52.1118C142.559 51.6477 142.928 51.019 143.072 50.3234C143.286 49.3153 143.493 48.2968 143.718 47.2964C143.81 46.9476 143.824 46.5826 143.757 46.228C143.691 45.8734 143.546 45.5381 143.333 45.2466C142.366 43.9929 141.309 42.8142 140.306 41.576C140.173 41.4104 140.102 41.204 140.104 40.9918C140.138 38.8644 140.215 36.7447 140.234 34.6174C140.249 33.5653 140.014 32.4719 140.174 31.4431C140.567 28.7366 141.087 26.0406 141.614 23.3445C141.823 22.2795 142.183 21.2274 142.462 20.1831C143.186 20.2839 143.834 20.3537 144.486 20.4597C144.554 20.4748 144.618 20.5062 144.672 20.5512C144.726 20.5962 144.769 20.6534 144.796 20.7182C144.982 21.6307 145.571 22.1425 146.476 22.4268C146.37 22.7426 146.284 23.0646 146.218 23.391C146.086 24.425 145.869 25.459 145.897 26.48C145.926 27.501 146.554 28.1835 147.562 28.4781C148.004 28.6312 148.483 28.6417 148.931 28.5081C149.38 28.3746 149.775 28.1037 150.061 27.7337C150.33 27.4296 150.583 27.1121 150.819 26.7824C152.727 24.0476 153.75 21.0827 152.998 17.7119C152.804 16.8201 152.409 15.9774 152.137 15.1994C152.75 14.9073 153.383 14.5971 154.063 14.2688C154.122 14.3515 154.272 14.5273 154.422 14.7031C155.071 15.5275 155.906 16.1872 156.857 16.6288C158.587 17.4043 160.218 16.4763 160.352 14.5867C160.385 13.972 160.288 13.3573 160.068 12.7824ZM130.659 4.95787C130.369 5.0044 130.031 4.76917 129.715 4.66319C129.736 4.6089 129.747 4.54687 129.767 4.48224C129.787 4.42034 129.804 4.35733 129.816 4.29354C129.837 4.2315 129.855 4.16688 129.876 4.10484C129.88 4.07319 129.889 4.04252 129.904 4.01437C129.904 4.0026 129.907 3.99098 129.912 3.98028C129.917 3.96958 129.924 3.96005 129.933 3.95233C129.933 3.95233 129.933 3.93424 129.953 3.92648C129.964 3.86052 129.996 3.80019 130.046 3.75588C130.147 3.6499 130.258 3.55167 130.369 3.44568C130.591 3.24495 130.828 3.06336 131.08 2.90285C131.201 2.81932 131.327 2.74335 131.458 2.67538C134.66 1.0417 138.995 1.97228 141.28 4.63992C141.486 4.88605 141.676 5.14507 141.849 5.4154C141.893 5.48003 141.927 5.54465 141.971 5.60927C142.205 6.01137 142.392 6.43894 142.529 6.88364C142.565 6.97583 142.596 7.06989 142.622 7.1654C142.622 7.21193 142.648 7.24812 142.656 7.29465C142.697 7.4406 142.729 7.58912 142.751 7.73926C142.777 7.8866 142.808 8.03135 142.824 8.18644C142.824 8.24848 142.847 8.31311 142.855 8.36739C142.873 8.47585 142.883 8.58565 142.883 8.69567C142.905 9.02101 142.905 9.34745 142.883 9.67278C142.887 9.71489 142.887 9.75734 142.883 9.79945C142.883 9.90801 142.868 10.0166 142.857 10.1174C142.847 10.2182 142.824 10.3319 142.813 10.4327L142.555 10.1743C142.475 10.0915 142.397 10.0088 142.317 9.93386C142.178 9.78833 142.051 9.63091 141.94 9.4634C141.81 9.25497 141.65 9.06755 141.464 8.90764C141.347 8.80531 141.218 8.71843 141.079 8.64915C140.868 8.53749 140.641 8.45819 140.407 8.41392C140.128 8.35447 139.838 8.30277 139.559 8.24849C138.99 8.13475 138.422 8.03135 137.845 7.9538C137.566 7.90986 137.276 7.86592 136.987 7.84265C136.751 7.82403 136.518 7.77895 136.292 7.70824C136.123 7.66612 135.967 7.58724 135.832 7.47729C135.698 7.36734 135.59 7.22904 135.516 7.07234C135.497 7.03457 135.482 6.99466 135.472 6.95343C135.472 6.95343 135.472 6.95343 135.472 6.93534L135.423 6.76215C135.393 6.48124 135.425 6.19723 135.516 5.9298C135.534 5.85743 135.555 5.78505 135.583 5.70491C135.653 5.53431 135.764 5.37404 135.842 5.18793C135.874 5.11551 135.9 5.04023 135.919 4.96304C135.939 4.91457 135.95 4.86285 135.95 4.81053V4.78468C135.954 4.77554 135.954 4.76538 135.95 4.75624C135.952 4.75179 135.954 4.74694 135.954 4.74203C135.954 4.73711 135.952 4.73226 135.95 4.72781C135.956 4.68836 135.956 4.64835 135.95 4.6089C135.938 4.55214 135.918 4.49734 135.891 4.44605C135.873 4.42796 135.865 4.39952 135.839 4.37109C135.83 4.34351 135.81 4.32045 135.785 4.30647C135.737 4.25871 135.683 4.21781 135.625 4.18497C135.591 4.16822 135.555 4.15522 135.519 4.1462C135.464 4.12552 135.4 4.11518 135.348 4.09709C134.969 4.07074 134.588 4.10743 134.221 4.20565C133.019 4.43571 131.843 4.74332 130.659 4.95787ZM135.945 15.8146C135.917 15.7864 135.897 15.7518 135.886 15.7138C135.852 15.5949 135.829 15.476 135.803 15.3493C135.777 15.2226 135.767 15.0313 135.744 14.8659C135.718 14.7651 135.702 14.6746 135.687 14.5764C135.687 14.5299 135.671 14.4756 135.663 14.4291C135.637 14.2428 135.601 14.0582 135.555 13.8759C135.539 13.8138 135.514 13.7389 135.498 13.6768C135.472 13.6001 135.437 13.5264 135.395 13.4571C135.304 13.3396 135.186 13.2459 135.051 13.1842C134.916 13.1225 134.767 13.0946 134.619 13.103C134.507 13.1434 134.405 13.2066 134.319 13.2884C134.232 13.3703 134.164 13.4691 134.118 13.5786C134.101 13.6061 134.091 13.6371 134.089 13.6691C134.089 13.7311 134.076 13.7854 134.076 13.8578C134.068 13.9178 134.063 13.9782 134.061 14.0387C134.061 14.1473 134.061 14.2662 134.045 14.3825C134.03 14.4988 134.03 14.6281 134.027 14.7548V15.127C134.027 15.2976 134.027 15.4527 134.006 15.6155C134.006 15.9852 133.944 16.3471 133.916 16.6986C133.779 16.7503 133.658 16.802 133.523 16.8434C133.523 16.7891 133.497 16.7426 133.492 16.6883C133.487 16.634 133.466 16.5797 133.458 16.5332C133.449 16.5038 133.444 16.4734 133.443 16.4427C133.425 16.3715 133.403 16.3016 133.376 16.2333C133.358 16.179 133.332 16.1222 133.316 16.0679C133.278 15.9793 133.235 15.893 133.187 15.8094C133.18 15.7863 133.167 15.7651 133.151 15.7474C133.124 15.7033 133.088 15.6654 133.045 15.6362C132.742 15.401 132.36 15.0753 132.052 15.1192C131.978 15.1315 131.908 15.1637 131.851 15.2123C131.812 15.2407 131.786 15.2666 131.747 15.3002C131.579 15.4784 131.443 15.6838 131.344 15.9076C131.008 16.6831 130.788 17.5155 130.442 18.2858C130.413 18.3478 130.385 18.4021 130.357 18.4641C130.328 18.5262 130.289 18.5805 130.253 18.6451C130.17 18.7891 130.062 18.9176 129.935 19.0251C129.906 19.0543 129.872 19.078 129.834 19.0949C129.814 19.1095 129.793 19.1217 129.77 19.131C129.724 19.1566 129.674 19.1732 129.622 19.1802C129.516 19.2084 129.403 19.2084 129.297 19.1802C129.229 19.1666 129.165 19.1403 129.108 19.1026C129.054 19.0844 129.008 19.049 128.976 19.0018C128.807 18.7461 128.728 18.4415 128.751 18.1358C128.751 18.0712 128.751 18.0066 128.751 17.9523C128.733 17.6265 128.741 17.2998 128.775 16.9752C128.775 16.8847 128.79 16.7943 128.8 16.7167C128.82 16.5353 128.848 16.355 128.886 16.1765C128.904 16.0607 128.928 15.9459 128.958 15.8327C129.078 15.2894 129.261 14.7619 129.504 14.261C129.542 14.1809 129.589 14.1008 129.628 14.018C130.173 12.9714 130.937 12.0544 131.869 11.3297C131.906 11.2947 131.946 11.2619 131.988 11.2315C132.026 11.2023 132.067 11.1764 132.109 11.1539C132.542 10.8309 133.007 10.5537 133.497 10.3268C133.729 10.2148 133.967 10.1181 134.211 10.0373C134.337 9.99331 134.469 9.9442 134.611 9.91059C134.754 9.87699 134.87 9.84339 135.004 9.81237C135.061 9.79371 135.119 9.77987 135.177 9.77101C135.255 9.75388 135.334 9.74094 135.413 9.73223C135.487 9.71517 135.564 9.70479 135.64 9.70122C135.813 9.67795 135.994 9.66244 136.178 9.64952C136.866 9.6228 137.555 9.67659 138.23 9.80978C138.334 9.82048 138.436 9.84126 138.535 9.87182C138.716 9.90284 138.897 9.95196 139.076 9.99331C139.347 10.0631 139.616 10.1432 139.895 10.2518C140.047 10.3009 140.2 10.35 140.352 10.4095C140.094 10.5103 139.985 10.5723 139.877 10.6059C139.768 10.6395 139.618 10.6887 139.484 10.7404C139.412 10.7662 139.347 10.7921 139.275 10.8257C139.138 10.8851 139.016 10.9472 138.879 11.0169C138.574 11.1843 138.29 11.3864 138.031 11.6192C137.949 11.6994 137.874 11.7795 137.799 11.8596C137.722 11.9416 137.65 12.0279 137.584 12.1181C137.527 12.1983 137.473 12.2706 137.416 12.3404L137.388 12.3947C137.32 12.4929 137.263 12.5912 137.199 12.7075C137.111 12.8748 137.035 13.0475 136.969 13.2245C136.957 13.2506 136.95 13.2786 136.948 13.3072C136.909 13.4156 136.876 13.526 136.85 13.6381C136.82 13.7513 136.796 13.8661 136.778 13.9819C136.778 14.018 136.778 14.062 136.757 14.0982C136.725 14.3017 136.707 14.5073 136.705 14.7134V14.8039C136.7 15.1011 136.661 15.3968 136.589 15.6853C136.574 15.7381 136.548 15.7867 136.511 15.8275C136.503 15.8478 136.491 15.8663 136.475 15.8818L136.364 15.9878C136.328 16.0148 136.293 16.0441 136.261 16.0757C136.15 15.9997 136.044 15.9159 135.945 15.8249V15.8146ZM136.268 25.9785C136.994 23.5082 137.904 21.0957 138.99 18.7614C139.368 18.9501 139.662 19.1129 140.037 19.3016C139.988 19.4361 139.931 19.5731 139.882 19.6971C139.758 20.0022 139.624 20.3175 139.497 20.62C139.37 20.9224 139.218 21.3024 139.083 21.6539C139.006 21.8504 138.928 22.0572 138.861 22.2562C138.812 22.3725 138.755 22.4966 138.714 22.6233C138.177 24.0765 137.718 25.5572 137.338 27.059C137.258 27.364 137.178 27.6794 137.106 27.9948C137.085 28.0749 137.067 28.1576 137.046 28.2377C136.966 28.4962 136.907 28.7858 136.845 29.0649C136.818 29.3368 136.737 29.6005 136.607 29.8404C136.578 29.8828 136.539 29.918 136.494 29.9435C136.45 29.969 136.4 29.9841 136.348 29.9877C136.319 29.9969 136.289 30.0021 136.258 30.0033H136.196C136.149 30.0033 136.095 30.0033 136.041 30.0033C135.926 30.0098 135.812 30.0098 135.697 30.0033H135.227C135.526 28.6401 135.874 27.302 136.268 25.9889V25.9785ZM134.48 33.4541C134.604 32.8777 134.725 32.3194 134.857 31.761C134.89 31.6723 134.949 31.5951 135.025 31.5387C135.048 31.5164 135.072 31.4957 135.097 31.4767C135.154 31.4335 135.221 31.4042 135.291 31.3914C135.635 31.3601 135.981 31.3601 136.325 31.3914C136.245 31.9704 136.178 32.5494 136.1 33.1259C136.023 33.7023 135.945 34.2632 135.86 34.8319C135.838 34.8914 135.804 34.9454 135.76 34.9901C135.715 35.0347 135.661 35.069 135.601 35.0904C135.601 35.0904 135.583 35.0904 135.576 35.0904L135.092 35.1602C134.976 35.1757 134.857 35.1835 134.73 35.1964L134.087 35.2533C134.234 34.6355 134.358 34.0383 134.48 33.4645V33.4541ZM134.066 37.0136C134.076 36.9854 134.089 36.9586 134.105 36.9335C134.114 36.9131 134.127 36.8947 134.143 36.8792C134.147 36.8678 134.153 36.8573 134.161 36.8484C134.169 36.8395 134.179 36.8323 134.19 36.8275C134.225 36.7807 134.269 36.7412 134.319 36.7111C134.352 36.6893 134.389 36.6752 134.428 36.6698C134.846 36.5732 135.269 36.499 135.694 36.4475C135.694 36.8818 135.694 37.3057 135.679 37.74C135.679 38.3733 135.658 39.0091 135.65 39.6425C135.643 40.2758 135.619 40.9194 135.614 41.5631L134.11 41.5786C133.964 41.5653 133.819 41.5437 133.676 41.514C133.802 40.0069 133.913 38.5154 134.066 37.0239V37.0136ZM109.098 27.4312C109.147 27.2771 109.208 27.1268 109.279 26.9815C109.276 26.9696 109.276 26.9571 109.279 26.9453C109.297 26.9015 109.319 26.8599 109.346 26.8212C109.42 26.6686 109.506 26.5225 109.605 26.3844C109.703 26.2474 109.809 26.1162 109.923 25.9914C110.001 25.8979 110.088 25.8114 110.181 25.7329C110.198 25.7098 110.22 25.6912 110.246 25.6787C110.305 25.6279 110.367 25.5812 110.432 25.5391C110.512 25.4745 110.598 25.419 110.69 25.3736C110.757 25.3271 110.828 25.2864 110.902 25.2522C111.021 25.18 111.147 25.1195 111.277 25.0712C111.37 25.0259 111.468 24.9913 111.569 24.9678C111.577 24.9594 111.588 24.9534 111.599 24.9507C111.611 24.9479 111.623 24.9485 111.634 24.9523C111.726 24.9186 111.82 24.891 111.916 24.8696C111.949 24.8588 111.982 24.8502 112.016 24.8437C112.144 24.8071 112.275 24.7829 112.407 24.7714C112.645 24.7403 112.88 24.7119 113.118 24.6886C113.588 24.6369 114.061 24.6033 114.532 24.5982C115.136 24.5851 115.74 24.6093 116.341 24.6705C116.705 24.7051 117.066 24.7586 117.424 24.8308C117.519 24.8491 117.612 24.8733 117.703 24.9032C117.793 24.9176 117.879 24.9437 117.962 24.9807C118.067 25.0098 118.169 25.0488 118.267 25.0971C118.545 25.2062 118.795 25.3768 118.998 25.5959C119.053 25.6504 119.103 25.7091 119.148 25.7717C119.285 25.9494 119.388 26.1511 119.451 26.3663C119.466 26.4309 119.484 26.4852 119.5 26.5498C119.517 26.6352 119.53 26.7215 119.539 26.8083C119.548 26.8386 119.553 26.8698 119.554 26.9013C119.567 26.9756 119.575 27.0508 119.577 27.1262C119.577 27.2736 119.577 27.4183 119.577 27.5708C119.577 27.7233 119.559 27.8784 119.539 28.0335C119.518 28.1886 119.505 28.2584 119.484 28.367C119.453 28.5557 119.422 28.7547 119.381 28.9434C119.34 29.1321 119.319 29.2407 119.288 29.3932C119.273 29.5258 119.219 29.6509 119.133 29.7525C119.089 29.8067 119.032 29.8492 118.967 29.8766C118.904 29.9067 118.836 29.9268 118.766 29.936C118.712 29.9412 118.657 29.9412 118.603 29.936C117.796 29.936 116.98 29.936 116.176 29.9128C116.127 29.9141 116.078 29.9097 116.031 29.8999C115.992 29.9091 115.951 29.9091 115.912 29.8999C115.841 29.8922 115.771 29.8748 115.705 29.8482C115.664 29.8399 115.627 29.8202 115.597 29.7913C115.57 29.7776 115.546 29.7582 115.527 29.7344C115.527 29.7344 115.501 29.7086 115.501 29.6982C115.464 29.6531 115.437 29.6001 115.423 29.5431C115.405 29.525 115.405 29.4966 115.398 29.4708C115.388 29.4442 115.383 29.4163 115.382 29.388C115.371 29.3432 115.366 29.2972 115.367 29.251C115.356 29.1974 115.352 29.1428 115.354 29.0882C115.354 28.8297 115.429 28.5195 115.281 28.2972C115.257 28.2619 115.227 28.2306 115.193 28.2041C115.171 28.1859 115.147 28.1703 115.121 28.1576C115.049 28.1157 114.97 28.086 114.888 28.0697C114.678 28.0229 114.463 27.9969 114.247 27.9922C114.145 27.9868 114.042 27.9868 113.94 27.9922C113.847 27.9973 113.755 28.0129 113.666 28.0387C113.602 28.0465 113.54 28.0639 113.482 28.0904C113.454 28.097 113.427 28.1084 113.402 28.124C113.386 28.1257 113.37 28.1309 113.355 28.1395C113.268 28.1758 113.186 28.2265 113.115 28.2894C113.064 28.3253 113.021 28.3699 112.986 28.4213C112.95 28.4639 112.921 28.5119 112.901 28.5634C112.679 29.0955 112.506 29.6467 112.384 30.21C111.913 32.3452 111.453 34.4726 111.029 36.6181C110.833 37.6521 111.14 37.9622 112.203 37.8976C112.407 37.8876 112.611 37.8652 112.813 37.8304C112.986 37.7958 113.153 37.7329 113.306 37.6443C113.369 37.6079 113.428 37.5636 113.48 37.5125C113.532 37.4573 113.58 37.3976 113.622 37.3341C113.716 37.1947 113.79 37.0423 113.841 36.8818C113.88 36.7835 113.911 36.6672 113.95 36.5483C113.968 36.4863 113.989 36.4242 114.009 36.3596C114.097 36.0442 114.152 35.7211 114.221 35.3773C114.239 35.2381 114.264 35.1001 114.296 34.9637L113.87 34.9818C113.826 34.9818 113.779 34.9818 113.743 34.9818C113.562 34.9818 113.389 34.9818 113.226 34.9818C113.178 34.9831 113.129 34.9788 113.081 34.9689C113.041 34.9679 113.001 34.961 112.963 34.9482C112.925 34.9501 112.887 34.9392 112.857 34.9172C112.797 34.9015 112.741 34.8723 112.694 34.8319C112.665 34.8218 112.641 34.8028 112.624 34.7776C112.595 34.7474 112.571 34.7124 112.554 34.6742C112.533 34.6344 112.519 34.5917 112.51 34.5476C112.493 34.4853 112.486 34.4207 112.49 34.3563C112.492 34.2649 112.503 34.174 112.523 34.0849C112.647 33.4645 112.782 32.8415 112.913 32.2108C112.929 32.1206 112.959 32.0334 113.001 31.9523C113.02 31.9154 113.046 31.8822 113.076 31.8541C113.099 31.8257 113.123 31.7989 113.149 31.7739C113.284 31.6839 113.444 31.637 113.606 31.6395C115.111 31.6395 116.615 31.6395 118.117 31.6524H118.145C118.221 31.6542 118.297 31.6655 118.37 31.686C118.385 31.6816 118.402 31.6816 118.417 31.686C118.471 31.7018 118.522 31.7282 118.567 31.7636C118.613 31.7835 118.653 31.8157 118.683 31.8566C118.683 31.8566 118.683 31.8566 118.701 31.8566C118.719 31.8566 118.719 31.8825 118.727 31.9032C118.735 31.9239 118.727 31.929 118.745 31.9394C118.766 31.9652 118.777 31.9969 118.779 32.0298C118.782 32.0477 118.782 32.0662 118.779 32.0841V32.1203C118.779 32.1203 118.779 32.1565 118.779 32.1746C118.784 32.2046 118.784 32.2351 118.779 32.2651C118.779 32.2832 118.779 32.2909 118.779 32.309C118.719 32.5675 118.665 32.8596 118.624 33.1388C118.531 33.6351 118.427 34.1314 118.324 34.6174C118.293 34.7983 118.251 34.9792 118.21 35.1576C118.138 35.5195 118.047 35.8788 117.951 36.2304C117.91 36.4113 117.861 36.5819 117.812 36.7473C117.742 36.9903 117.672 37.223 117.595 37.4582C117.448 37.9309 117.275 38.3951 117.078 38.8489C117.024 38.9909 116.953 39.1262 116.868 39.2521C116.812 39.3685 116.737 39.4744 116.672 39.583C116.607 39.6916 116.576 39.7329 116.519 39.8053C116.467 39.8863 116.408 39.9632 116.344 40.0354C116.245 40.1687 116.128 40.2879 115.997 40.3895C115.972 40.4297 115.937 40.4634 115.896 40.4877C115.876 40.513 115.85 40.534 115.821 40.5498C115.786 40.5839 115.746 40.6134 115.703 40.6377C115.678 40.6513 115.657 40.6688 115.638 40.6894C115.563 40.7411 115.498 40.785 115.426 40.8289C115.355 40.8734 115.282 40.9139 115.206 40.9504H115.188C115.17 40.9685 115.142 40.9763 115.124 40.9944C115.083 41.0086 115.043 41.0259 115.005 41.0461C114.922 41.0871 114.835 41.1209 114.746 41.1469C114.645 41.1825 114.541 41.2102 114.436 41.2296H114.418L114.343 41.2555C114.155 41.2991 113.964 41.3276 113.772 41.3408C112.198 41.464 110.617 41.4735 109.041 41.3692C108.951 41.3692 108.85 41.3563 108.759 41.3459C108.429 41.2979 108.11 41.192 107.816 41.0331C107.54 40.8869 107.303 40.6758 107.126 40.4179C107.065 40.3367 107.013 40.2502 106.968 40.1594C106.909 40.0598 106.863 39.953 106.831 39.8415C106.798 39.7429 106.774 39.6417 106.759 39.5391C106.727 39.4139 106.708 39.2856 106.704 39.1565C106.704 39.0479 106.692 38.9394 106.704 38.8308V38.6964C106.738 38.0812 106.798 37.4659 106.878 36.8507C106.911 36.5354 106.955 36.2097 107.009 35.8943C107.021 35.7638 107.042 35.6343 107.072 35.5066C107.092 35.4058 107.105 35.3179 107.126 35.2171C107.135 35.138 107.149 35.0595 107.167 34.9818C107.211 34.7233 107.271 34.4416 107.333 34.1727C107.819 31.9316 108.382 29.662 109.098 27.4416V27.4312ZM96.1114 26.8315C96.2019 26.3973 96.2949 25.9656 96.3699 25.5391C96.3699 25.521 96.3699 25.5029 96.3906 25.4848C96.3971 25.4384 96.4102 25.3931 96.4294 25.3504C96.4313 25.3166 96.445 25.2846 96.4681 25.2599C96.4862 25.2341 96.4966 25.1979 96.5147 25.172C96.5421 25.1098 96.5837 25.0549 96.6362 25.0118C96.6653 24.9755 96.7037 24.9478 96.7473 24.9316C96.7473 24.9135 96.7654 24.9058 96.7835 24.9058C96.8016 24.9058 96.8016 24.9058 96.8119 24.8877L96.9127 24.8541C96.948 24.8438 96.9846 24.8386 97.0213 24.8386C97.048 24.8297 97.0759 24.8244 97.104 24.8231C97.1643 24.819 97.2247 24.819 97.285 24.8231C98.1535 24.8463 99.0143 24.8231 99.8932 24.8231C100.7 24.8231 100.901 25.0815 100.738 25.857C99.9698 29.4449 99.1995 33.0354 98.4275 36.6284C98.4275 36.6724 98.4068 36.7267 98.3965 36.7706C98.3861 36.8145 98.3758 36.8714 98.3655 36.9257C98.2828 37.2953 98.2647 37.6753 98.7971 37.7684L99.0039 37.802C99.0763 37.802 99.1409 37.8149 99.203 37.8149C99.2885 37.8292 99.3748 37.8378 99.4615 37.8408H99.5054C99.5918 37.8421 99.6781 37.8378 99.7639 37.8278C99.8628 37.8195 99.9607 37.8013 100.056 37.7736C100.093 37.7671 100.127 37.752 100.157 37.7296C100.18 37.7273 100.203 37.7184 100.221 37.7038C100.25 37.6857 100.286 37.6702 100.322 37.6521C100.358 37.634 100.377 37.6081 100.415 37.5823L100.516 37.484C100.552 37.4438 100.583 37.3996 100.609 37.3522C100.628 37.3115 100.651 37.2726 100.676 37.2359C100.697 37.1866 100.714 37.1356 100.726 37.0834C100.785 36.8481 100.855 36.6233 100.906 36.388C100.945 36.2278 100.987 36.0572 101.018 35.8943C101.139 35.336 101.263 34.7673 101.385 34.1986L101.744 32.4874L103.197 25.6735C103.224 25.5205 103.264 25.3701 103.316 25.2237C103.332 25.1834 103.352 25.1445 103.375 25.1074C103.382 25.0815 103.399 25.0592 103.422 25.0454C103.457 24.995 103.505 24.9549 103.561 24.929C103.589 24.9132 103.62 24.9019 103.652 24.8954C103.843 24.854 104.038 24.8374 104.233 24.8463H104.277C105.073 24.8282 105.872 24.8308 106.658 24.8463C106.843 24.8375 107.027 24.8702 107.198 24.942C107.216 24.942 107.227 24.942 107.234 24.942C107.251 24.9519 107.266 24.9651 107.278 24.9807C107.313 25.0024 107.346 25.0275 107.377 25.0557C107.391 25.0692 107.403 25.0849 107.413 25.1022C107.414 25.1143 107.414 25.1264 107.413 25.1384L107.439 25.1668C107.445 25.1724 107.449 25.1793 107.452 25.1868C107.456 25.1944 107.457 25.2026 107.457 25.2108C107.471 25.2467 107.483 25.2839 107.49 25.3219C107.495 25.3303 107.497 25.3396 107.497 25.3491C107.497 25.3586 107.495 25.3679 107.49 25.3762C107.493 25.3831 107.495 25.3906 107.495 25.3982C107.495 25.4058 107.493 25.4133 107.49 25.4202V25.583C107.495 25.6217 107.495 25.6607 107.49 25.6993L107.459 25.8079C107.255 26.7462 107.051 27.6923 106.847 28.6281C106.694 29.3312 106.539 30.0343 106.386 30.7477C106.335 30.9804 106.286 31.2156 106.234 31.4482C106.03 32.3866 105.815 33.3249 105.603 34.2606C105.391 35.1964 105.166 36.1347 104.944 37.0705C104.886 37.3149 104.813 37.5557 104.727 37.7916C104.641 38.0332 104.542 38.2697 104.43 38.4999C104.324 38.7326 104.21 38.9549 104.096 39.1798C104.039 39.2961 103.972 39.4124 103.908 39.5184C103.843 39.6244 103.773 39.7433 103.709 39.8493C103.698 39.8713 103.685 39.8921 103.67 39.9113C103.659 39.9384 103.644 39.9631 103.623 39.9837C103.562 40.0824 103.49 40.1743 103.409 40.2577C103.346 40.343 103.27 40.418 103.184 40.48C103.118 40.5441 103.047 40.6029 102.972 40.6558C102.756 40.8113 102.521 40.9398 102.274 41.0383L102.155 41.09C102.141 41.0937 102.125 41.0937 102.111 41.09C101.881 41.1644 101.646 41.2223 101.408 41.2632C101.134 41.3097 100.863 41.3382 100.599 41.3692C100.082 41.4286 99.5364 41.47 99.0117 41.4829C98.3344 41.4953 97.657 41.4703 96.9825 41.408C96.5845 41.3795 96.2071 41.3252 95.809 41.2606C95.7004 41.2399 95.5918 41.2089 95.4936 41.1805L95.323 41.121L95.2248 41.0926C95.2203 41.0947 95.2155 41.0958 95.2106 41.0958C95.2057 41.0958 95.2008 41.0947 95.1963 41.0926C95.1963 41.0926 95.1963 41.0926 95.1782 41.0926C95.1152 41.0773 95.055 41.052 94.9999 41.0176C94.9454 40.9919 94.8943 40.9598 94.8474 40.922C94.7842 40.8902 94.7245 40.8521 94.669 40.8083C94.6423 40.7986 94.6202 40.7792 94.607 40.754C94.5536 40.7211 94.5056 40.6801 94.4648 40.6325C94.4364 40.6325 94.4209 40.5937 94.4028 40.5756C94.3847 40.5623 94.3719 40.5431 94.3666 40.5213C94.3283 40.4904 94.2959 40.4527 94.2709 40.4102C94.228 40.3651 94.1899 40.3158 94.1572 40.2628C94.1391 40.2344 94.1314 40.1982 94.1133 40.1698C94.0933 40.1493 94.0783 40.1245 94.0693 40.0974C94.025 40.0145 93.9878 39.9281 93.9582 39.8389C93.9582 39.8389 93.9582 39.8105 93.9401 39.8001C93.9056 39.7117 93.8805 39.6198 93.8651 39.5261C93.8651 39.4899 93.8651 39.446 93.8522 39.4098C93.8399 39.3675 93.8313 39.3243 93.8263 39.2806C93.8036 39.1771 93.794 39.0711 93.7979 38.9652C93.7944 38.1933 93.8715 37.4231 94.028 36.6672C94.1107 36.2071 94.2037 35.7573 94.3045 35.3075C94.4053 34.8578 94.501 34.3976 94.5915 33.9453C94.7569 33.1517 94.9404 32.3504 95.1085 31.5568C95.4445 29.9877 95.7909 28.4187 96.1114 26.8419V26.8315ZM82.7266 40.1646C83.2591 37.7038 83.7813 35.2532 84.3034 32.7924C84.8256 30.3315 85.3374 27.881 85.8544 25.4202C85.877 25.304 85.9162 25.1917 85.9707 25.0867C86.0069 25.0334 86.0476 24.9832 86.0922 24.9368C86.0925 24.9298 86.0943 24.923 86.0974 24.9167C86.1005 24.9105 86.1049 24.905 86.1103 24.9006C86.122 24.8902 86.135 24.8815 86.1491 24.8748C86.2247 24.8149 86.3132 24.7733 86.4076 24.7533C86.4445 24.7351 86.4855 24.7271 86.5265 24.73C86.5988 24.7244 86.6713 24.7244 86.7436 24.73L94.0383 24.7455C94.4183 24.7455 94.6509 24.8231 94.775 25.004C94.7997 25.0218 94.8178 25.0473 94.8267 25.0764C94.8267 25.0764 94.8267 25.1048 94.8267 25.1126C94.8267 25.1203 94.8448 25.1849 94.8525 25.2211C94.8628 25.2757 94.8671 25.3311 94.8655 25.3866C94.8617 25.5134 94.847 25.6397 94.8215 25.764C94.7595 26.0716 94.6871 26.3688 94.6251 26.6764C94.6044 26.7643 94.5863 26.8548 94.5656 26.9349C94.5449 27.0151 94.5243 27.1417 94.5036 27.2503L94.4416 27.576C94.432 27.6561 94.4111 27.7344 94.3795 27.8086C94.3511 27.8552 94.333 27.8914 94.3149 27.925C94.3074 27.9464 94.294 27.9652 94.2761 27.9793C94.2672 28.0021 94.2508 28.0212 94.2296 28.0335C94.1703 28.0954 94.0978 28.1431 94.0176 28.1731C93.8663 28.228 93.7053 28.2518 93.5446 28.2429C92.3503 28.2429 91.1535 28.2222 89.9567 28.2429C89.8306 28.2634 89.7145 28.3242 89.6258 28.4161C89.6058 28.4322 89.5876 28.4504 89.5715 28.4704C89.5403 28.5034 89.5173 28.5432 89.5043 28.5867C89.2743 29.5044 89.0882 30.4324 88.8814 31.4301H89.8016C90.7167 31.4431 91.5955 31.4301 92.4744 31.4301C92.6164 31.4321 92.7581 31.4442 92.8983 31.4663C92.9907 31.4841 93.0786 31.5202 93.1568 31.5723C93.3533 31.7145 93.374 31.9678 93.2809 32.4202C93.2499 32.5623 93.2189 32.7071 93.1801 32.8596C93.087 33.2835 92.9862 33.6997 92.9035 34.121C92.9035 34.1391 92.9035 34.1572 92.9035 34.1753C92.8182 34.6639 92.508 34.7905 92.0815 34.7905C91.0217 34.7905 89.9619 34.7905 88.9124 34.775H88.6022C88.5296 34.7648 88.4556 34.77 88.3852 34.7905C88.3148 34.811 88.2495 34.8463 88.1938 34.8939C88.1769 34.9099 88.1614 34.9272 88.1472 34.9456C88.1319 34.9673 88.1213 34.992 88.1162 35.018C88.0791 35.0886 88.053 35.1645 88.0387 35.2429C87.8629 36.0985 87.6716 36.9645 87.4855 37.8278C87.2994 38.6912 87.1184 39.5391 86.9427 40.4128C86.9427 40.449 86.922 40.4929 86.9116 40.5291C86.8967 40.5977 86.8742 40.6645 86.8444 40.7281C86.8179 40.7881 86.7802 40.8425 86.7333 40.8884C86.706 40.9222 86.6716 40.9496 86.6325 40.9685C86.6103 40.9868 86.5848 41.0009 86.5575 41.0099C86.5413 41.0204 86.5226 41.0267 86.5032 41.028L86.4567 41.0538L86.3016 41.0771C86.2453 41.0868 86.1881 41.0912 86.131 41.09C85.6941 41.09 85.2702 41.09 84.8385 41.09C84.4068 41.09 83.9338 41.09 83.4814 41.09C83.0291 41.09 82.8223 40.9995 82.737 40.7617C82.7197 40.7214 82.7084 40.6787 82.7034 40.6351C82.6882 40.4814 82.696 40.3263 82.7266 40.1749V40.1646ZM69.0265 26.8807C69.1739 26.4593 69.3186 26.038 69.4556 25.6244C69.6831 24.9239 70.0527 24.6318 70.7765 24.624C72.3275 24.624 73.9017 24.624 75.4604 24.6473C76.5564 24.6654 76.9881 25.1307 76.9002 26.1982C76.6004 29.4889 76.2927 32.7717 76.0032 36.0623C75.8714 37.4453 75.7292 38.8282 75.6388 40.2215C75.5974 40.7798 75.3803 41.0306 74.8323 41.0151C73.9069 41.0151 72.9737 41.0435 72.0509 41.0383C71.3607 41.0383 71.1591 40.7798 71.2392 40.0948C71.353 39.1642 71.4744 38.2233 71.5908 37.2514C70.9575 37.2514 70.3862 37.2152 69.8227 37.2514C69.6779 37.2669 69.4918 37.497 69.4324 37.6598C69.148 38.5413 68.874 39.4305 68.6336 40.3223C68.494 40.8393 68.2097 41.0357 67.6746 41.0306C66.8242 41.0021 65.9711 41.0306 65.1284 41.0306C64.4408 41.0306 64.203 40.7178 64.4357 40.0793C65.9642 35.6884 67.498 31.2923 69.0368 26.891L69.0265 26.8807ZM54.0649 31.0631C54.4759 29.1347 54.8947 27.2064 55.285 25.2754C55.3219 25.1118 55.3838 24.9548 55.4686 24.8101C55.5099 24.7628 55.5539 24.718 55.6004 24.6757C55.7759 24.5629 55.9849 24.5136 56.1923 24.5361C57.0531 24.5671 57.9217 24.5361 58.7928 24.5361C59.0034 24.5232 59.2147 24.5495 59.4158 24.6137C59.4923 24.6423 59.56 24.6904 59.6122 24.7533C59.6459 24.8081 59.6719 24.8672 59.6898 24.929C59.7033 24.9608 59.7086 24.9955 59.7053 25.0298C59.7053 25.066 59.7053 25.1022 59.7053 25.1462C59.7053 25.2651 59.6717 25.4176 59.6406 25.5882C58.9246 28.8969 58.2008 32.1953 57.4848 35.5117L57.3814 36.0158C57.3564 36.1257 57.3383 36.2371 57.3271 36.3493C57.2947 36.5284 57.2783 36.7101 57.278 36.8921C57.2781 36.9506 57.2859 37.0088 57.3013 37.0653C57.3003 37.0974 57.3093 37.129 57.3271 37.1558C57.3311 37.1889 57.3426 37.2208 57.3607 37.2488C57.3737 37.2885 57.3979 37.3235 57.4305 37.3496C57.4431 37.3725 57.4619 37.3914 57.4848 37.4039C57.5203 37.4324 57.5583 37.4575 57.5985 37.4789C57.8312 37.5849 58.2138 37.5668 58.7695 37.4789C58.8892 37.4569 59.0018 37.4064 59.0978 37.3315C59.1368 37.3048 59.174 37.2754 59.209 37.2436C59.2785 37.187 59.3434 37.1247 59.4028 37.0575C59.4627 36.9927 59.5187 36.9245 59.5708 36.8533C59.7151 36.6058 59.8034 36.3296 59.8293 36.0442C60.2171 34.2606 60.5996 32.4822 60.977 30.7089C61.2355 29.5561 61.4759 28.4109 61.7138 27.2581C61.8456 26.6273 61.9722 26.0044 62.1041 25.3736C62.1041 25.3297 62.1248 25.2832 62.1325 25.2573C62.1403 25.2315 62.1635 25.1746 62.1713 25.141C62.1848 25.0793 62.2112 25.0212 62.2488 24.9704C62.2924 24.8685 62.3598 24.7785 62.4452 24.7079C62.5306 24.6373 62.6317 24.5882 62.74 24.5646C62.8639 24.5538 62.988 24.5452 63.1122 24.5387C63.9704 24.5775 64.8157 24.5516 65.6661 24.5646C65.8072 24.5631 65.9474 24.5876 66.0797 24.6369C66.1129 24.6411 66.1442 24.6546 66.1702 24.6757C66.2274 24.6941 66.2772 24.7304 66.3123 24.7791C66.344 24.806 66.3681 24.8408 66.3821 24.8799C66.3991 24.9113 66.4104 24.9454 66.4157 24.9807C66.4157 25.0092 66.4157 25.0454 66.4313 25.0712V25.2625C66.4313 25.3245 66.408 25.4073 66.3873 25.4874L65.7333 28.535C65.4748 29.7965 65.1905 31.0657 64.9165 32.3271C64.6425 33.5886 64.3633 34.8707 64.0712 36.1321C63.8654 37.0348 63.5674 37.914 63.182 38.7558C62.6159 40.0095 61.631 40.8987 60.2274 41.0021C58.496 41.115 56.7596 41.1297 55.0265 41.0461C53.1085 40.9453 52.5036 39.309 52.7208 37.8821C53.0103 36.0959 53.4058 34.3201 53.7547 32.5339C53.853 32.0557 53.9641 31.5594 54.0753 31.0734L54.0649 31.0631ZM42.7817 26.8807C42.9032 26.3146 43.0402 25.7459 43.141 25.1772C43.1704 24.9945 43.2617 24.8275 43.3995 24.7042C43.4631 24.6505 43.5384 24.6125 43.6192 24.593C43.7146 24.5681 43.8127 24.555 43.9113 24.5542C47.0132 24.5671 50.1152 24.5542 53.2326 24.5749C53.5583 24.5749 53.7651 24.668 53.8607 24.8618C53.9217 25.0339 53.9298 25.2202 53.884 25.3969C53.884 25.5055 53.84 25.614 53.8194 25.72C53.7392 26.1259 53.6384 26.5317 53.5609 26.9479L53.4497 27.4416C53.4337 27.5559 53.3969 27.6663 53.3412 27.7673C53.297 27.8391 53.2401 27.9022 53.1731 27.9534C53.0208 28.0554 52.8391 28.1045 52.6562 28.093C51.8238 28.093 50.9992 28.0801 50.0919 28.093L49.9497 28.7521C49.1407 32.5468 48.3031 36.3389 47.5044 40.1439C47.4907 40.2229 47.4709 40.3007 47.4449 40.3766C47.4203 40.4764 47.3761 40.5702 47.3148 40.6528C47.2536 40.7353 47.1766 40.8049 47.0882 40.8574C47.052 40.8574 47.0236 40.8832 46.9952 40.891C46.9648 40.916 46.9258 40.9281 46.8866 40.9246C46.7943 40.9463 46.6993 40.9533 46.6048 40.9453C46.5662 40.9491 46.5272 40.9491 46.4885 40.9453C46.2895 40.9453 46.0879 40.9453 45.8811 40.9453C45.2839 40.9453 44.6661 40.9789 44.0716 40.984C43.322 40.984 43.0919 40.7049 43.247 39.9656L45.7932 28.0956C45.0694 28.0956 44.4076 28.0956 43.7459 28.0956C42.7559 28.0671 42.5775 27.8345 42.7817 26.8807ZM22.4874 39.4486C23.0742 37.6391 23.7153 35.8297 24.3589 34.0202C25.3438 31.1975 26.3364 28.3773 27.3135 25.5468C27.3863 25.2749 27.5509 25.0366 27.7794 24.8721C28.0079 24.7077 28.2862 24.6274 28.5672 24.6447C30.1698 24.6318 31.7725 24.6447 33.3674 24.6628C33.4139 24.6628 33.4579 24.6628 33.4941 24.6628C34.3626 24.73 34.802 25.2573 34.7193 26.1336C34.3057 30.7262 33.8965 35.3213 33.4915 39.919C33.4901 40.2134 33.372 40.4952 33.1632 40.7026C32.9543 40.91 32.6717 41.0261 32.3774 41.0254C31.7156 41.0461 31.0642 41.0487 30.4025 41.0047C29.4538 40.953 29.0661 40.4877 29.1617 39.5339C29.2444 38.7817 29.3427 38.0527 29.4357 37.2566C28.8102 37.2566 28.2389 37.21 27.6961 37.2566C27.5984 37.2841 27.5087 37.3345 27.4345 37.4038C27.3603 37.4731 27.3037 37.5591 27.2696 37.6546C26.9878 38.443 26.7681 39.2444 26.5122 40.0354C26.295 40.7462 26.0184 40.9659 25.274 41.0021C24.7312 41.0254 24.1961 41.0306 23.6429 41.0254C22.6839 41.0021 22.1824 40.3559 22.4874 39.4486ZM15.4719 25.857C15.6684 24.929 16.0096 24.6576 16.9428 24.6447C17.4598 24.6447 17.9948 24.6318 18.5092 24.6628C18.6934 24.6723 18.8753 24.708 19.0495 24.7688C19.0964 24.7856 19.1415 24.8072 19.1839 24.8334C19.231 24.8539 19.2739 24.8828 19.3106 24.9187C19.3577 24.9411 19.3999 24.9727 19.4346 25.0118C19.4527 25.0324 19.4708 25.0402 19.4863 25.0583C19.508 25.0804 19.5263 25.1057 19.5406 25.1332C19.5732 25.1611 19.5996 25.1955 19.6182 25.2341C19.6788 25.3384 19.7191 25.4533 19.7371 25.5727C19.7465 25.6143 19.7517 25.6567 19.7526 25.6993C19.7735 25.8902 19.763 26.0832 19.7216 26.2706C19.3519 27.9999 18.9745 29.7215 18.5971 31.4405C18.2197 33.1595 17.8423 34.8939 17.4727 36.6103L17.3098 37.3858C18.1809 37.3858 18.9771 37.3858 19.7836 37.4013C20.0912 37.41 20.397 37.4507 20.6961 37.5228C20.7732 37.5514 20.8476 37.5869 20.9184 37.6288C20.9869 37.664 21.0504 37.7084 21.1071 37.7606C21.1428 37.7903 21.1749 37.8242 21.2027 37.8614C21.2446 37.8967 21.2782 37.9409 21.301 37.9907C21.3249 38.0344 21.3448 38.0803 21.3604 38.1277C21.3788 38.1686 21.3902 38.2123 21.394 38.2569C21.4048 38.2959 21.4125 38.3357 21.4173 38.3758C21.4353 38.4837 21.4353 38.5937 21.4173 38.7015C21.394 38.8825 21.3552 39.0531 21.3139 39.234C21.2725 39.415 21.2312 39.5933 21.1924 39.7743C21.1614 39.8906 21.1407 40.0069 21.1097 40.1155C21.0857 40.2059 21.0501 40.2928 21.0037 40.374C20.9843 40.4365 20.9527 40.4945 20.9106 40.5446C20.9106 40.5446 20.9106 40.5446 20.9106 40.5627C20.8908 40.5908 20.8692 40.6175 20.846 40.6428C20.6211 40.9194 20.267 40.9995 19.6673 41.0047C17.7208 41.0202 15.764 41.0047 13.8253 41.0047C13.3264 41.0047 12.8276 41.0047 12.2382 41.028L15.4719 25.857ZM16.1828 63.7185C16.038 64.3957 15.8855 65.0808 15.7434 65.7554C15.7012 65.9534 15.6388 66.1466 15.5572 66.3319V66.35C15.512 66.4512 15.4547 66.5467 15.3866 66.6343C15.3293 66.7041 15.2671 66.7697 15.2005 66.8307C15.0076 66.9846 14.7759 67.0821 14.531 67.1125C14.4533 67.1254 14.3746 67.1323 14.2958 67.1332C14.2178 67.1429 14.1392 67.1472 14.0606 67.1461C11.4756 67.1461 8.8907 67.1461 6.30577 67.1461C5.2718 67.1461 4.23783 67.203 3.18577 67.2237C2.92727 67.2366 2.65327 67.2107 2.30947 67.203C2.32611 67.14 2.33905 67.0762 2.34824 67.0117C2.37926 66.8954 2.39994 66.7971 2.42062 66.6886C2.42062 66.6343 2.4413 66.5903 2.45164 66.5361C3.92505 59.6757 5.38984 52.823 6.84602 45.9781C6.99078 45.3112 7.13295 44.634 7.27771 43.967C7.30656 43.8359 7.34281 43.7064 7.38628 43.5793C7.38628 43.5431 7.40696 43.5069 7.4173 43.4811C7.4423 43.4167 7.47078 43.3537 7.5026 43.2924C7.50509 43.2733 7.51123 43.2549 7.52069 43.2381C7.56634 43.1468 7.62089 43.0602 7.68354 42.9796C7.74554 42.9008 7.8167 42.8296 7.89551 42.7676C8.16262 42.5736 8.48077 42.4622 8.81057 42.4471C8.94265 42.4314 9.0757 42.4253 9.20865 42.429C9.76958 42.4419 10.3202 42.4652 10.8733 42.4885C11.4265 42.5117 11.9952 42.5427 12.5484 42.566C12.6367 42.57 12.7238 42.5874 12.8069 42.6177C12.9658 42.6577 13.1152 42.7289 13.2463 42.8271C13.3087 42.8785 13.3643 42.9375 13.4118 43.0029C13.535 43.1497 13.627 43.32 13.6821 43.5036C13.7372 43.6872 13.7543 43.88 13.7323 44.0704C13.7225 44.1574 13.7078 44.2437 13.6883 44.3289C13.6677 44.4194 13.647 44.4995 13.6289 44.5874C13.3316 45.9574 13.0343 47.3171 12.7397 48.6871C12.445 50.0571 12.1555 51.4194 11.8582 52.7791C11.2766 55.5088 10.6846 58.241 10.1005 60.9707C10.0488 61.2137 9.99705 61.4593 9.92467 61.7927C10.1987 61.7927 10.4417 61.7695 10.7002 61.7565C10.7829 61.7565 10.863 61.7565 10.9457 61.7565L11.897 61.7255C12.3493 61.7255 12.8043 61.7255 13.2567 61.7255C13.709 61.7255 14.1614 61.7255 14.6137 61.7488C14.7446 61.751 14.8751 61.7631 15.0041 61.785L15.2626 61.847C15.3832 61.8708 15.501 61.9072 15.6141 61.9556C15.7052 62.0076 15.7917 62.0673 15.8726 62.1339C16.2216 62.4726 16.3276 62.9895 16.1828 63.7185ZM37.2345 48.0461C37.2586 49.2216 37.166 50.3966 36.9579 51.5538C36.5856 53.7639 36.1824 55.974 35.6654 58.1557C35.1019 60.4589 34.4919 62.7543 33.7112 64.9929C32.8323 67.5778 30.9815 69.1468 28.1924 69.4596C25.9333 69.7459 23.6461 69.7294 21.3914 69.4105C18.928 69.015 17.8165 68.162 17.8216 65.3005C17.8216 64.8378 17.8527 64.3751 17.8914 63.9149C17.8785 63.7159 17.8759 63.5065 17.8708 63.2816C17.8708 61.5963 18.2094 59.9006 18.4756 58.2307C18.7005 56.8503 19.0417 55.5088 19.3364 54.1387C19.2925 54.1387 19.2485 54.1181 19.1942 54.1C19.887 51.696 20.4867 49.2558 21.2829 46.8751C21.8722 45.0398 22.9786 43.4733 24.8526 42.7857C26.0133 42.3618 27.2928 42.2843 28.5207 42.0697C28.5972 42.0559 28.676 42.064 28.7481 42.093C29.9889 42.7857 31.346 42.5272 32.6591 42.5324C33.1322 42.5324 33.6259 42.2739 34.0705 42.3334C36.1074 42.6642 37.2293 43.9153 37.2862 46.0272C37.3058 46.6432 37.2842 47.2598 37.2215 47.8729C37.2297 47.9302 37.234 47.9881 37.2345 48.0461ZM63.3423 57.9644C62.696 59.96 62.0429 61.9556 61.3829 63.9511C61.326 64.1398 61.2562 64.3182 61.1993 64.5069C61.1011 64.7861 61.0132 65.073 60.915 65.3625C60.8168 65.652 60.7392 65.8795 60.6565 66.1535C60.6135 66.3123 60.5454 66.4633 60.4549 66.6007C60.4319 66.6449 60.4042 66.6865 60.3722 66.7248C60.3419 66.7671 60.3072 66.8061 60.2688 66.8411C60.0268 67.0714 59.7127 67.2111 59.3796 67.2366C59.2945 67.2539 59.2077 67.2608 59.1211 67.2573C58.0871 67.2573 57.0531 67.2702 56.0191 67.2573C54.9852 67.2443 53.9331 67.2573 52.894 67.2262C51.7514 67.2056 51.2525 66.5412 51.343 65.4013C51.6015 61.9013 51.86 58.3935 52.1185 54.8832C52.1547 54.5032 52.1935 54.1077 52.2296 53.7355C52.2658 53.3633 52.302 52.96 52.3304 52.58V52.5257C52.2954 52.3768 52.2443 52.232 52.1779 52.0941C52.0306 52.2181 51.8031 52.3034 51.7437 52.456C51.0457 54.2964 50.3762 56.1446 49.6964 57.9955C48.6883 60.7251 47.6758 63.4548 46.6591 66.1845C46.6246 66.296 46.5732 66.4015 46.5066 66.4973C46.4678 66.5661 46.4237 66.6318 46.3748 66.6937C46.3728 66.7014 46.3693 66.7086 46.3644 66.7148C46.3595 66.7211 46.3533 66.7262 46.3463 66.7299C46.3463 66.7299 46.3283 66.7454 46.3179 66.7558C46.3069 66.7659 46.2981 66.7783 46.2921 66.792C46.2006 66.8933 46.091 66.9766 45.9689 67.0375C45.841 67.1065 45.7019 67.152 45.5579 67.172C45.4798 67.1881 45.3999 67.1951 45.3201 67.1926C43.1359 67.2107 40.9619 67.2314 38.7803 67.1771C38.6742 67.1751 38.5686 67.1629 38.4649 67.1409C38.3819 67.1253 38.3006 67.1019 38.2219 67.0712L38.1392 67.0427C38.0862 67.0199 38.0359 66.9913 37.9893 66.9574C37.9361 66.9359 37.8871 66.9053 37.8445 66.8669C37.7998 66.8398 37.7604 66.8047 37.7282 66.7635C37.6501 66.6889 37.5854 66.6015 37.5369 66.5051C37.4911 66.4312 37.4563 66.3511 37.4335 66.2672C37.3521 65.9933 37.3283 65.7055 37.3637 65.422C38.053 58.6632 38.7423 51.8942 39.4317 45.1148C39.4653 44.8071 39.4911 44.5099 39.5247 44.2023C39.5319 44.1387 39.5431 44.0757 39.5583 44.0136C39.5583 43.9489 39.579 43.8947 39.5893 43.8404C39.5901 43.8 39.5998 43.7603 39.6178 43.7241C39.6276 43.6431 39.6512 43.5644 39.6876 43.4914C39.6934 43.4498 39.7065 43.4095 39.7263 43.3725C39.7461 43.3264 39.7685 43.2816 39.7935 43.2381C39.8256 43.168 39.8674 43.1027 39.9176 43.0442C39.9684 42.9722 40.0274 42.9062 40.0934 42.8478C40.1623 42.7875 40.2399 42.7378 40.3235 42.7004C40.3751 42.6696 40.4308 42.6461 40.4889 42.6306C40.5419 42.6074 40.5963 42.5876 40.6517 42.5712C40.7649 42.5392 40.8809 42.5184 40.9981 42.5091C41.117 42.4936 41.2566 42.4859 41.3988 42.4807C42.3681 42.4678 43.3271 42.4652 44.2965 42.4807C44.3829 42.4809 44.4692 42.4861 44.555 42.4962C44.5912 42.4962 44.6351 42.4962 44.6816 42.5169C44.7282 42.5376 44.7256 42.5169 44.7437 42.5169C44.7618 42.5169 44.7799 42.5169 44.798 42.5376C44.9547 42.5709 45.106 42.6257 45.2477 42.7004C45.2874 42.7236 45.3254 42.7495 45.3615 42.778C45.4162 42.8064 45.4674 42.8411 45.514 42.8814C45.5347 42.8967 45.553 42.915 45.5683 42.9357C45.6047 42.9656 45.6369 43.0004 45.6639 43.0391C45.6809 43.0479 45.6959 43.0602 45.7079 43.0752C45.754 43.1238 45.7956 43.1766 45.8319 43.2329C45.85 43.2691 45.8655 43.3156 45.8836 43.3518C45.9 43.3758 45.9147 43.4008 45.9276 43.4268C45.9276 43.463 45.9534 43.4992 45.9612 43.5354C45.9771 43.5708 45.9884 43.6082 45.9948 43.6465C45.9948 43.6646 45.9948 43.6905 45.9948 43.7086C46.0071 43.7568 46.0149 43.8062 46.0181 43.8559C46.0234 43.8979 46.0234 43.9405 46.0181 43.9826C46.0234 44.1185 46.0139 44.2546 45.9896 44.3884C45.925 44.8046 45.8707 45.2104 45.8164 45.6266C45.7622 46.0427 45.6949 46.446 45.6406 46.8544C45.4183 48.4958 45.2064 50.1502 44.9944 51.7942C44.891 52.6162 44.7799 53.446 44.6687 54.268C44.5162 55.3976 44.3611 56.535 44.2138 57.6723C44.1595 58.0523 44.1155 58.422 44.0613 58.7916V58.8821C44.0613 59.0372 44.0613 59.2 44.0768 59.3551C44.1311 59.3913 44.1828 59.4198 44.237 59.4585C44.387 59.3086 44.5963 59.2 44.6636 59.0165C45.1107 57.8662 45.5088 56.6901 45.956 55.5398L48.2592 49.5479C48.6469 48.5424 49.0347 47.5472 49.4121 46.5416C49.7895 45.5361 50.1875 44.5306 50.5546 43.5354C50.6104 43.3811 50.6898 43.2363 50.7898 43.1063C50.835 43.0461 50.8851 42.9899 50.9398 42.9382L50.9966 42.884C51.1257 42.7657 51.2793 42.6774 51.4464 42.6255C51.4731 42.6142 51.5008 42.6055 51.5291 42.5996L51.6093 42.5738L51.7023 42.5505H51.7282C51.8097 42.541 51.8917 42.5367 51.9737 42.5376C53.4678 42.5557 54.9697 42.6306 56.4818 42.7314C56.5093 42.7338 56.5362 42.7399 56.562 42.7495L56.6706 42.7806C56.703 42.7845 56.7336 42.798 56.7584 42.8193L56.8412 42.8659C56.8971 42.9026 56.9475 42.9469 56.9911 42.9977C57.0163 43.0175 57.0374 43.0421 57.0531 43.0701C57.1039 43.1209 57.145 43.1804 57.1746 43.2458C57.2122 43.3102 57.2442 43.3777 57.2703 43.4475C57.3045 43.5199 57.3296 43.5963 57.3452 43.6749C57.364 43.7532 57.377 43.8326 57.384 43.9128C57.3945 43.9986 57.3945 44.0854 57.384 44.1713C57.3426 45.1587 57.2909 46.1358 57.2392 47.1207C57.0609 51.0678 56.8825 55.0228 56.7223 58.9777C56.7223 59.1225 56.8593 59.2802 56.9291 59.4353C56.9652 59.4094 57.004 59.3732 57.0479 59.3474C57.0596 59.337 57.0727 59.3283 57.0867 59.3215C57.0867 59.3215 57.0867 59.3034 57.1126 59.2957C57.1597 59.2697 57.2032 59.2376 57.2418 59.2C57.2674 59.1733 57.29 59.1439 57.309 59.1121C57.3157 59.1066 57.3209 59.0993 57.3241 59.0912C57.3272 59.0831 57.3283 59.0743 57.3271 59.0656C57.5262 58.409 57.7123 57.7525 57.901 57.0882C58.0897 56.4238 58.2784 55.7724 58.4671 55.1081C58.8445 53.7949 59.2115 52.4792 59.5967 51.1583C60.1413 49.2627 60.6953 47.3766 61.2588 45.4999C61.4372 44.8795 61.6155 44.2669 61.8016 43.6465C61.8482 43.4814 61.9263 43.3269 62.0317 43.1916C62.2339 42.9177 62.5226 42.72 62.8511 42.6306C62.9359 42.6058 63.0222 42.5868 63.1096 42.5738C63.2058 42.555 63.3037 42.5454 63.4017 42.5453C64.1617 42.5453 64.932 42.5453 65.7023 42.5453H66.1831C66.283 42.5471 66.3826 42.5584 66.4804 42.5789C66.6071 42.5979 66.7312 42.6317 66.85 42.6797C66.92 42.7048 66.9861 42.7396 67.0464 42.7831C67.0762 42.7926 67.1036 42.8085 67.1266 42.8297C67.196 42.8697 67.2588 42.9203 67.3127 42.9796C67.3481 43.0114 67.381 43.046 67.4109 43.083C67.4475 43.1136 67.4774 43.1515 67.4988 43.1942C67.6196 43.3888 67.6948 43.6083 67.719 43.8361C67.7432 44.0639 67.7156 44.2942 67.6384 44.5099C67.5195 44.8976 67.4006 45.2854 67.2739 45.6705C67.186 45.9678 67.0982 46.2547 67.0154 46.5416C66.7207 47.4515 66.4364 48.3511 66.1521 49.23C66.0642 49.4885 65.9866 49.7469 65.8936 50.0054C65.8005 50.2639 65.7178 50.5224 65.6351 50.7964C64.8932 53.1927 64.1203 55.5734 63.3448 57.9644H63.3423ZM82.9515 53.1668C81.7767 53.2069 80.6006 53.1836 79.4283 53.097C78.5235 53.0298 78.1074 52.3577 78.2289 51.4737C78.2625 51.2152 78.2857 50.9567 78.3116 50.6982C78.2829 50.6003 78.2639 50.4999 78.2547 50.3984C78.2547 50.3622 78.2547 50.326 78.2392 50.2898V50.1709C78.2392 50.0907 78.2521 50.008 78.2625 49.9279C78.2857 49.7831 78.2987 49.628 78.3116 49.4755C78.3116 49.3851 78.3245 49.2842 78.3349 49.186C78.2918 49.111 78.2297 49.0488 78.1548 49.0056C78.0798 48.9625 77.9948 48.94 77.9083 48.9404C77.1886 48.8577 76.4618 48.8577 75.7422 48.9404C75.1244 49.0232 74.8736 49.6151 74.7082 50.1657C74.323 51.4582 73.9818 52.7661 73.6432 54.0715C73.501 54.6376 73.3976 55.2063 73.2736 55.775C73.2374 55.775 73.2012 55.7621 73.1753 55.7543C72.8341 57.7835 72.4696 59.8049 72.1569 61.8341C72.192 61.9141 72.2494 61.9823 72.3223 62.0305C72.3617 62.0572 72.4043 62.0789 72.449 62.0952C72.5656 62.1476 72.6909 62.1783 72.8186 62.1856C72.8811 62.1946 72.9442 62.1998 73.0073 62.2011C73.0853 62.2108 73.1639 62.2151 73.2425 62.2141C73.6742 62.2299 74.1064 62.2108 74.535 62.1572C74.6031 62.1479 74.6704 62.1341 74.7366 62.1158C74.932 62.0729 75.1145 61.9844 75.2691 61.8573C75.3347 61.8023 75.3937 61.7399 75.4449 61.6712C75.463 61.6531 75.4811 61.6273 75.5018 61.6014C75.5112 61.5847 75.5174 61.5662 75.5199 61.5472C75.5322 61.5243 75.5478 61.5033 75.5664 61.4851C75.6554 61.3434 75.7291 61.1926 75.7861 61.0353C75.8145 60.9552 75.8456 60.8751 75.8843 60.7768C75.9593 60.5985 76.0187 60.3994 76.0963 60.1849C76.2049 59.8514 76.3031 59.5206 76.3858 59.1871C76.4279 58.9947 76.4994 58.8098 76.5978 58.6391C76.6827 58.4857 76.7928 58.3476 76.9235 58.2307C77.2049 57.9989 77.5567 57.8695 77.9212 57.8636C78.8467 57.8326 79.7798 57.8119 80.7026 57.8636C80.8146 57.8667 80.9261 57.8788 81.0361 57.8998C81.0516 57.899 81.0671 57.899 81.0826 57.8998C81.2013 57.9202 81.318 57.9505 81.4316 57.9903C81.5201 58.0196 81.6065 58.055 81.6901 58.0963C81.8216 58.1559 81.9422 58.2372 82.0468 58.3367C82.0814 58.3652 82.1111 58.3993 82.1347 58.4375C82.1534 58.456 82.1683 58.4779 82.1786 58.5021C82.1858 58.5152 82.1944 58.5273 82.2045 58.5383L82.2226 58.5564C82.311 58.7025 82.3715 58.8638 82.4009 59.032C82.405 59.075 82.405 59.1183 82.4009 59.1613C82.4105 59.2116 82.4157 59.2626 82.4165 59.3138C82.416 59.3478 82.4116 59.3816 82.4035 59.4146C82.4018 59.5177 82.387 59.6202 82.3596 59.7196C82.3439 59.7897 82.324 59.8587 82.3001 59.9264C82.2794 60.0272 82.251 60.1177 82.2303 60.2056C82.2117 60.262 82.1978 60.32 82.189 60.3788C82.1409 60.5228 82.1012 60.6696 82.0701 60.8182C82.021 60.9811 81.9822 61.1336 81.9305 61.2964C81.9098 61.3946 81.8814 61.4851 81.8529 61.5833C81.8012 61.772 81.7521 61.9711 81.6927 62.1598C81.5738 62.6096 81.4342 63.0516 81.2791 63.4807C81.2326 63.6073 81.1834 63.7392 81.1343 63.8581C80.9899 64.2149 80.8052 64.554 80.5837 64.8688C80.377 65.1707 80.1396 65.4505 79.8755 65.7037C79.8005 65.7761 79.7178 65.8459 79.6428 65.9079C79.6167 65.936 79.5861 65.9595 79.5523 65.9777L79.3585 66.1354L79.3197 66.1612C79.2372 66.2274 79.1509 66.2887 79.0612 66.3448C79.0377 66.3678 79.0095 66.3854 78.9785 66.3965C78.9208 66.4398 78.8594 66.4779 78.795 66.5102C78.6653 66.5973 78.5266 66.6701 78.3814 66.7273C78.1923 66.8276 77.9962 66.914 77.7946 66.9858C77.7176 67.0196 77.6381 67.0472 77.5568 67.0686C77.3534 67.1437 77.1463 67.2084 76.9364 67.2624C76.5538 67.3607 76.1609 67.4434 75.7913 67.5054C75.6 67.5364 75.4087 67.57 75.2174 67.5907C74.8349 67.6372 74.4419 67.6631 74.0542 67.6889L73.6561 67.707C72.9659 67.7277 72.2784 67.707 71.5882 67.6838C70.456 67.6372 69.2979 67.6372 68.2097 67.3115C67.8394 67.2052 67.4815 67.0596 67.1421 66.8773C67.0364 66.8173 66.9345 66.7509 66.8371 66.6782C66.636 66.5323 66.4522 66.3641 66.2891 66.1768C66.2084 66.0871 66.1349 65.9911 66.0694 65.8898C65.6976 65.3087 65.4805 64.6423 65.4386 63.9537C65.3915 63.2463 65.427 62.5358 65.5446 61.8367C65.7126 60.5442 65.9143 59.2517 66.1366 57.9722C66.2219 57.4759 66.3149 56.9899 66.408 56.4936C66.5217 55.9068 66.6458 55.3123 66.7699 54.7281C66.9534 53.8518 67.1576 52.9704 67.3773 52.0966C67.479 51.6555 67.5893 51.2169 67.7082 50.7809C67.8194 50.3492 67.9383 49.9098 68.0572 49.4885C68.2174 48.9017 68.3777 48.3252 68.5535 47.7514C68.6129 47.5446 68.6827 47.3378 68.7603 47.1388C68.8076 46.9752 68.8691 46.8161 68.9438 46.6631C69.0213 46.4667 69.1066 46.2702 69.2023 46.0815C69.3168 45.8483 69.4437 45.6214 69.5823 45.4017C69.614 45.3465 69.6485 45.293 69.6857 45.2414C69.7606 45.1354 69.8279 45.0269 69.9028 44.9286C70.2136 44.4884 70.5793 44.0897 70.9911 43.7422C71.9165 42.9667 72.9608 42.4678 74.2196 42.5531C74.652 42.5778 75.0858 42.5518 75.5121 42.4755C75.8246 42.4199 76.1329 42.3431 76.4349 42.2455C76.6479 42.1819 76.8672 42.142 77.0889 42.1266C77.6147 42.0969 78.142 42.1098 78.6657 42.1653C79.915 42.2423 81.1577 42.4029 82.3854 42.6461C82.4837 42.6668 82.5845 42.6953 82.6827 42.7237L82.799 42.7547C82.8545 42.7711 82.9089 42.791 82.9619 42.8142C83.0656 42.8504 83.1674 42.8918 83.2669 42.9382C83.4788 43.0382 83.6791 43.1613 83.864 43.3053C84.0728 43.4644 84.2551 43.6554 84.4043 43.8714L84.4818 44.0007C84.5165 44.0515 84.5484 44.1041 84.5774 44.1583C84.6636 44.2974 84.7297 44.448 84.7739 44.6055C84.8068 44.6788 84.8294 44.7562 84.8411 44.8356C84.8411 44.8614 84.8592 44.8976 84.867 44.9338C84.8825 45.0631 84.8954 45.1923 84.9109 45.3267C84.9264 45.4611 84.9109 45.624 84.9109 45.7791C84.8928 46.0764 84.8773 46.3762 84.8514 46.6735C84.8804 46.8928 84.8908 47.1141 84.8825 47.3352C84.8153 48.9482 84.4947 50.5534 84.2207 52.1406C84.1685 52.436 84.0113 52.7025 83.7781 52.8911C83.5449 53.0797 83.2513 53.1776 82.9515 53.1668ZM99.7898 63.6539C99.6291 63.995 99.4487 64.3264 99.2495 64.6465C98.0036 66.6472 96.1243 67.5597 93.8574 67.6321C91.7636 67.6967 89.6413 67.7717 87.5837 67.5054C85.0893 67.1901 83.9002 66.1742 84.0708 62.9689C84.1639 61.0431 84.5878 59.1147 84.9109 57.1838C85.0272 56.4238 85.2185 55.6768 85.3814 54.9194L85.2469 54.891C85.9242 52.4508 86.5084 49.9796 87.2916 47.5834C87.3433 47.4205 87.3924 47.2499 87.4493 47.0896C88.4083 44.1868 90.4788 42.5066 93.6118 42.3023C93.7832 42.271 93.9592 42.2754 94.1288 42.3153C96.1734 43.1812 98.3138 43.0908 100.457 42.9331C101.299 42.871 102.033 42.9072 102.576 43.6181C103.255 44.4756 103.585 45.5573 103.502 46.6476C103.387 48.3018 103.181 49.9484 102.884 51.5797C102.313 54.4825 101.635 57.3647 100.948 60.2366C100.685 61.4131 100.297 62.5579 99.7898 63.6513V63.6539ZM120.728 48.5682C120.58 49.3799 120.332 50.1812 120.115 50.98C120.057 51.2596 119.907 51.5115 119.688 51.6954C119.47 51.8792 119.196 51.9841 118.91 51.9932C117.894 52.0618 116.874 52.0488 115.86 51.9545C114.93 51.8511 114.519 51.2048 114.607 50.2665C114.697 49.1524 114.573 49.0051 113.441 48.9508C113.133 48.9392 112.824 48.9495 112.518 48.9818C112.205 48.9885 111.902 49.0967 111.655 49.2901C111.409 49.4836 111.232 49.7518 111.151 50.0546C111.07 50.2975 111.001 50.5405 110.933 50.7835C110.973 50.8805 111.032 50.9684 111.107 51.042C111.122 51.0627 111.14 51.081 111.161 51.0963C111.18 51.1229 111.203 51.1457 111.231 51.1635C111.294 51.2292 111.366 51.2858 111.445 51.3315C111.445 51.3315 111.463 51.3315 111.471 51.3496C111.5 51.3672 111.53 51.3828 111.562 51.3961C111.576 51.4129 111.593 51.4261 111.613 51.4349L111.668 51.4633C111.722 51.4918 111.776 51.5125 111.838 51.5409C113.2 52.1251 114.573 52.7119 115.946 53.2625C116.397 53.436 116.829 53.6533 117.238 53.9113C117.31 53.956 117.378 54.0061 117.442 54.0612C117.512 54.0966 117.575 54.1438 117.628 54.2008C117.684 54.2417 117.738 54.2858 117.789 54.3326C118.153 54.6589 118.427 55.0739 118.585 55.5372C118.653 55.7329 118.702 55.9345 118.732 56.1395C118.748 56.248 118.763 56.367 118.779 56.4755C118.799 56.734 118.81 56.9925 118.805 57.2924C118.805 57.4268 118.805 57.5509 118.784 57.7085C118.784 57.7809 118.784 57.861 118.761 57.9334C118.737 58.0058 118.748 58.0782 118.737 58.1609V58.2048C118.775 58.6029 118.775 59.0036 118.737 59.4017C118.587 61.5287 118.056 63.6115 117.171 65.5512C116.271 67.5132 114.72 68.6971 112.608 69.1262C110.162 69.6057 107.648 69.6241 105.195 69.1805C104.545 68.9883 103.91 68.7516 103.292 68.4722C102.938 68.2841 102.64 68.0052 102.429 67.6641C102.218 67.323 102.101 66.932 102.09 66.5309C102.049 65.9726 102.062 65.4115 102.132 64.8559V64.8378C102.111 64.5483 102.108 64.2562 102.116 63.9666C102.116 63.8141 102.116 63.6694 102.137 63.5143C102.137 63.4342 102.15 63.3514 102.16 63.2713C102.173 63.0827 102.198 62.8953 102.238 62.7104C102.313 62.3045 102.411 61.9065 102.522 61.511C102.633 61.1155 102.757 60.7122 102.887 60.3167C102.915 60.2279 102.95 60.1414 102.993 60.0582C103.073 59.9021 103.171 59.7555 103.285 59.6214C103.311 59.5876 103.342 59.558 103.378 59.5335C103.53 59.3895 103.716 59.2856 103.918 59.2311C104.008 59.2041 104.099 59.1817 104.192 59.1638C104.24 59.1541 104.288 59.1497 104.337 59.1509C104.385 59.1456 104.433 59.1456 104.481 59.1509L105.016 59.1354H105.815C106.074 59.1354 106.358 59.1354 106.629 59.1354C106.747 59.1387 106.865 59.1508 106.981 59.1716L107.18 59.2052C107.213 59.2046 107.244 59.2146 107.271 59.2336C107.345 59.2511 107.417 59.2744 107.488 59.3034C107.511 59.305 107.533 59.3151 107.55 59.3319C107.611 59.3601 107.671 59.392 107.728 59.4275C107.776 59.4413 107.817 59.4715 107.844 59.5128C107.878 59.5412 107.914 59.5697 107.95 59.6059C107.998 59.6369 108.035 59.682 108.056 59.7351L108.126 59.8359C108.126 59.8359 108.144 59.8359 108.144 59.854C108.182 59.915 108.214 59.98 108.237 60.0479C108.262 60.1162 108.282 60.1862 108.297 60.2573C108.331 60.3721 108.347 60.4916 108.343 60.6114C108.357 60.7926 108.349 60.9748 108.32 61.1542C108.311 61.2237 108.306 61.2936 108.305 61.3636C108.266 61.8418 108.323 62.1391 108.545 62.32C108.614 62.3695 108.689 62.4111 108.767 62.4441C108.82 62.4662 108.874 62.4826 108.93 62.4932C108.985 62.5117 109.043 62.5222 109.101 62.5243C109.145 62.5362 109.191 62.5431 109.238 62.5449C109.327 62.5597 109.418 62.5683 109.509 62.5708C109.744 62.5708 109.969 62.5708 110.204 62.5708C110.323 62.5708 110.442 62.5708 110.551 62.5449C110.711 62.5301 110.868 62.4909 111.016 62.4286C111.087 62.4132 111.155 62.3871 111.218 62.3511C111.288 62.3161 111.356 62.2755 111.419 62.2296C111.494 62.1675 111.567 62.1081 111.642 62.0357C111.665 62.0206 111.684 61.9991 111.696 61.9737C111.745 61.9223 111.79 61.866 111.828 61.8056C111.867 61.7453 111.901 61.6822 111.931 61.6169C111.967 61.5643 111.996 61.508 112.019 61.4489C112.048 61.3662 112.076 61.2757 112.107 61.1904C112.166 60.9655 112.226 60.7407 112.278 60.5132C112.295 60.4549 112.308 60.3952 112.316 60.3348C112.145 59.9633 111.849 59.6639 111.479 59.4895C110.396 58.9467 109.284 58.4556 108.18 57.9593C107.401 57.6267 106.639 57.254 105.898 56.8426C105.47 56.6037 105.119 56.2482 104.886 55.8176C104.653 55.387 104.546 54.8989 104.58 54.4102C104.598 54.0586 104.626 53.6967 104.652 53.3426C104.637 53.257 104.627 53.1707 104.621 53.0841C104.621 53.0014 104.621 52.8928 104.621 52.7946V52.7041C104.67 51.8175 104.745 50.9386 104.88 50.0649C104.967 49.4859 105.081 48.9094 105.221 48.3407C105.28 48.1262 105.332 47.9194 105.399 47.7023C105.44 47.5678 105.479 47.4438 105.528 47.299C105.592 47.0825 105.667 46.8694 105.753 46.6605C105.851 46.3801 105.963 46.1049 106.089 45.836C106.128 45.7455 106.175 45.6472 106.224 45.5568C106.268 45.4763 106.318 45.3994 106.374 45.3267C106.43 45.2285 106.498 45.1199 106.562 45.0217C106.684 44.8537 106.821 44.6831 106.955 44.5254C107.09 44.3677 107.234 44.1971 107.374 44.0446L107.439 43.9826C107.484 43.923 107.535 43.8668 107.589 43.8145C108.191 43.1967 108.948 42.9693 109.899 43.0391C110.965 43.1381 112.037 43.1493 113.105 43.0727C113.694 43.0181 114.278 42.9178 114.852 42.7728C115.051 42.7237 115.235 42.6642 115.426 42.597C115.563 42.5531 115.7 42.504 115.837 42.4523C115.894 42.4264 115.948 42.4187 116.002 42.3928C116.057 42.3682 116.116 42.3516 116.176 42.3437C116.548 42.2791 117.034 42.4626 117.447 42.5453C117.918 42.6384 118.368 42.8038 118.836 42.8969C118.926 42.9176 119.006 42.9382 119.094 42.9667C119.333 43.0355 119.558 43.1486 119.756 43.3001C120.021 43.5052 120.241 43.7642 120.399 44.0601C120.457 44.1603 120.509 44.2639 120.555 44.3703C120.603 44.4655 120.639 44.5662 120.663 44.6701C120.764 44.9731 120.821 45.2892 120.831 45.6085C120.831 45.717 120.831 45.8256 120.831 45.9342C120.824 46.2382 120.789 46.541 120.728 46.8389V46.8647C120.834 47.4264 120.837 48.0027 120.738 48.5656L120.728 48.5682ZM121.565 41.3769C120.658 41.3769 119.756 41.395 118.846 41.3925C118.238 41.3925 118.011 41.0538 118.215 40.4696C119.639 36.3717 121.065 32.2694 122.496 28.1628C122.798 27.3098 123.101 26.4464 123.382 25.5934C123.43 25.4053 123.544 25.2409 123.704 25.1314C123.864 25.0219 124.059 24.9747 124.251 24.9988C126.161 25.0169 128.074 25.0118 129.977 25.0118C130.563 25.0118 130.804 25.2702 130.752 25.8286C130.376 30.0231 129.996 34.2176 129.61 38.412C129.545 39.172 129.465 39.9501 129.426 40.71C129.431 40.8029 129.416 40.8958 129.382 40.9825C129.348 41.0691 129.296 41.1473 129.229 41.2119C129.162 41.2764 129.082 41.3257 128.994 41.3565C128.906 41.3872 128.813 41.3986 128.72 41.3899C127.743 41.3899 126.756 41.4131 125.768 41.3899C125.153 41.3899 124.949 41.1314 125.019 40.5032C125.143 39.5442 125.257 38.5878 125.381 37.603C124.773 37.603 124.204 37.5564 123.659 37.603C123.486 37.6262 123.271 37.8847 123.204 38.0734C122.909 38.9523 122.643 39.8441 122.405 40.7333C122.372 40.9246 122.269 41.0966 122.115 41.2153C121.962 41.334 121.769 41.3908 121.576 41.3744L121.565 41.3769ZM124.114 67.4227C124.011 67.4239 123.908 67.4152 123.806 67.3968C123.751 67.3876 123.697 67.3746 123.643 67.3581C123.616 67.3561 123.589 67.3491 123.563 67.3374C123.479 67.3113 123.4 67.2691 123.331 67.2133C123.286 67.19 123.247 67.1584 123.214 67.1203C123.199 67.0951 123.181 67.0709 123.163 67.0479C123.142 67.0273 123.126 67.0014 123.119 66.9729C123.088 66.9346 123.064 66.8908 123.049 66.8437C123.022 66.774 123.006 66.7009 123 66.6265C122.993 66.6053 122.988 66.5837 122.984 66.5619C122.98 66.5198 122.98 66.4774 122.984 66.4352V66.3732C122.984 66.3008 122.997 66.2181 123.018 66.1277C124.224 60.4408 125.442 54.754 126.67 49.0671C126.743 48.7259 126.851 48.3924 126.978 47.9685C126.978 47.9685 126.978 47.9427 126.978 47.9323C126.526 47.9323 126.091 47.9323 125.686 47.9194L124.065 47.9065C123.93 47.9065 123.793 47.9065 123.656 47.9065C123.488 47.9044 123.319 47.8914 123.152 47.8677C122.954 47.8464 122.763 47.7801 122.594 47.6738C122.555 47.6478 122.519 47.6165 122.488 47.5808C122.387 47.4677 122.321 47.3275 122.299 47.1775V47.1594C122.267 46.9886 122.267 46.8133 122.299 46.6424C122.304 46.5261 122.322 46.4108 122.354 46.2986L122.871 43.8662C122.889 43.7583 122.918 43.6526 122.958 43.5509C122.979 43.4966 122.997 43.4423 123.018 43.3984C123.054 43.3066 123.102 43.2198 123.16 43.1399C123.181 43.1042 123.206 43.0713 123.235 43.0416C123.27 42.9953 123.311 42.9536 123.357 42.9176C123.398 42.8799 123.444 42.8478 123.494 42.8219C123.494 42.8219 123.494 42.8219 123.512 42.8219C123.54 42.8025 123.571 42.7885 123.605 42.7806C123.656 42.7529 123.711 42.7328 123.768 42.7211C123.803 42.7056 123.84 42.6943 123.879 42.6875C123.923 42.6875 123.977 42.6875 124.031 42.672C124.191 42.6578 124.352 42.6578 124.512 42.672C125.029 42.7211 125.569 42.7883 126.102 42.8374C126.399 42.73 126.717 42.6945 127.03 42.734C127.5 42.7728 127.971 42.8374 128.449 42.8865H128.503C129.056 42.8271 129.62 42.7857 130.173 42.7625C130.726 42.7392 131.316 42.7289 131.887 42.7159C133.066 42.6978 134.234 42.7159 135.41 42.7159C136.199 42.7159 136.987 42.7159 137.765 42.7159C137.981 42.7082 138.198 42.7291 138.409 42.778C138.455 42.7961 138.509 42.8064 138.553 42.8245C138.993 43.008 139.256 43.3131 139.125 43.8714C138.866 44.9054 138.675 45.9393 138.45 46.9914C138.417 47.152 138.368 47.3088 138.303 47.4593L138.217 47.5911C138.207 47.6018 138.198 47.614 138.191 47.6273C138.122 47.7159 138.034 47.7882 137.933 47.8393C137.886 47.8603 137.836 47.8767 137.786 47.8884C137.702 47.9149 137.615 47.9314 137.527 47.9375C137.441 47.9486 137.355 47.9555 137.269 47.9582C136.834 47.9582 136.398 47.9582 135.956 47.9582C135.312 47.9582 134.676 47.9582 134.035 47.9297C133.916 47.9232 133.797 47.9327 133.681 47.9582C133.662 47.9597 133.643 47.965 133.626 47.9737L133.58 47.9995C133.546 48.0156 133.515 48.0365 133.487 48.0616L133.44 48.1055C133.396 48.1469 133.364 48.1996 133.347 48.258C133.318 48.3047 133.298 48.3564 133.288 48.4105C133.288 48.4648 133.259 48.5191 133.249 48.5811C132.624 51.528 131.99 54.4851 131.347 57.4216C130.703 60.3581 130.077 63.3178 129.444 66.2647C129.406 66.5866 129.283 66.8926 129.087 67.1513C129.075 67.1665 129.059 67.1788 129.041 67.1875C129.041 67.1875 129.041 67.1875 129.041 67.2056C128.92 67.3057 128.774 67.3709 128.619 67.3943C128.56 67.4063 128.499 67.414 128.439 67.4175C128.372 67.4216 128.306 67.4216 128.24 67.4175C128.167 67.4175 128.095 67.4175 128.012 67.4305C127.405 67.4305 126.807 67.4175 126.203 67.4305C125.502 67.4279 124.812 67.4201 124.124 67.4201L124.114 67.4227ZM141.208 13.6898C141.061 13.7415 140.924 13.7932 140.795 13.8526C140.674 13.9151 140.557 13.985 140.446 14.062C140.391 14.1059 140.345 14.1421 140.298 14.1861C139.724 14.6772 139.487 15.4527 139.487 16.6573C139.424 16.603 139.362 16.5461 139.311 16.4918C139.221 16.3994 139.139 16.3 139.065 16.1946C139.036 16.1631 139.009 16.1294 138.985 16.0937C138.985 16.0937 138.985 16.0757 138.967 16.0653C138.945 16.0268 138.928 15.9861 138.915 15.9438C138.875 15.897 138.842 15.8437 138.82 15.7861C138.804 15.75 138.794 15.7138 138.778 15.6853C138.759 15.6511 138.744 15.6146 138.734 15.5768L138.685 15.4113C138.669 15.3832 138.658 15.3527 138.652 15.3209C138.627 15.2409 138.61 15.1586 138.602 15.0753C138.585 15.0229 138.577 14.9677 138.579 14.9124C138.575 14.8999 138.575 14.8862 138.579 14.8737V14.8013C138.57 14.7353 138.565 14.6688 138.564 14.6022C138.56 14.548 138.56 14.4936 138.564 14.4394C138.567 14.3575 138.579 14.2762 138.597 14.1964C138.619 14.0891 138.649 13.9836 138.688 13.881V13.863C138.706 13.7946 138.732 13.7287 138.765 13.6665C138.803 13.5662 138.85 13.47 138.908 13.3796C138.953 13.2982 139.01 13.2234 139.076 13.1573C139.133 13.0817 139.196 13.0108 139.264 12.9453C139.324 12.8761 139.392 12.8137 139.466 12.7592C139.622 12.627 139.796 12.5182 139.983 12.4361C140.096 12.3826 140.213 12.3368 140.332 12.2991C140.984 12.1139 141.673 12.1053 142.33 12.2743C142.986 12.4433 143.586 12.7837 144.067 13.2607C144.132 13.319 144.191 13.384 144.243 13.4545C144.356 13.5884 144.459 13.731 144.55 13.881C144.64 14.0321 144.716 14.1913 144.775 14.3567C143.628 13.6665 142.488 13.2762 141.218 13.6872L141.208 13.6898ZM151.382 20.2658C151.383 20.3522 151.378 20.4386 151.367 20.5243C151.351 20.8457 151.31 21.1655 151.245 21.4807C151.233 21.5848 151.212 21.6877 151.183 21.7883C151.149 21.9588 151.105 22.1271 151.052 22.2924C151.031 22.3938 151.001 22.4932 150.964 22.5897C150.915 22.7422 150.865 22.8947 150.809 23.0395C150.752 23.1842 150.703 23.2979 150.643 23.4427C150.584 23.5875 150.491 23.7736 150.405 23.9442C150.32 24.1148 150.178 24.3629 150.054 24.5697C149.93 24.7765 149.795 24.9807 149.669 25.1849C149.657 25.2141 149.64 25.2412 149.619 25.2651C149.544 25.3736 149.47 25.4796 149.387 25.5856C149.37 25.6198 149.348 25.6506 149.32 25.6761C149.198 25.8441 149.061 26.0044 148.927 26.1724C148.844 26.2784 148.751 26.3766 148.668 26.4826C148.668 26.4826 148.65 26.5007 148.65 26.511C148.636 26.5302 148.617 26.5453 148.596 26.555C148.584 26.5619 148.571 26.5672 148.557 26.5705C148.548 26.5822 148.535 26.5912 148.521 26.5963C148.472 26.6331 148.416 26.6571 148.355 26.6661H148.301C148.295 26.6687 148.289 26.67 148.283 26.67C148.277 26.67 148.271 26.6687 148.265 26.6661C148.247 26.6661 148.237 26.6661 148.218 26.6661H148.164C148.124 26.674 148.083 26.6666 148.048 26.6454C147.943 26.5762 147.856 26.4823 147.795 26.3719C147.734 26.2616 147.701 26.1381 147.699 26.0121C147.699 25.9656 147.699 25.9217 147.722 25.8751C147.805 25.4253 147.888 24.9756 147.981 24.5154C147.981 24.4612 148.001 24.4069 148.012 24.3604C148.115 23.8201 148.237 23.2799 148.35 22.7293C148.371 22.6388 148.392 22.5587 148.41 22.4708C148.492 22.1296 148.583 21.778 148.645 21.4368C148.698 21.1815 148.728 20.922 148.735 20.6613V20.5967C148.751 20.5016 148.747 20.4043 148.725 20.3107C148.702 20.217 148.661 20.1288 148.604 20.0513C148.604 20.0332 148.578 20.0228 148.56 20.0047C148.542 19.9866 148.56 20.0047 148.542 20.0047C148.516 19.9887 148.49 19.9757 148.461 19.966C148.405 19.9518 148.345 19.9518 148.288 19.966C148.257 19.9669 148.227 19.9721 148.198 19.9815L148.115 20.0047L147.95 20.0642C147.894 20.0992 147.836 20.1311 147.776 20.1598C147.726 20.1863 147.674 20.2096 147.621 20.2296C147.438 20.3253 147.244 20.4002 147.053 20.4881L146.815 20.5812C146.762 20.5418 146.712 20.4986 146.665 20.4519L146.797 19.8212C146.797 19.8031 146.797 19.785 146.797 19.7669C146.829 19.667 146.849 19.5638 146.859 19.4593C146.87 19.4275 146.877 19.3946 146.879 19.3611V19.2965C146.884 19.2417 146.879 19.1865 146.864 19.1336C146.856 19.1137 146.851 19.0929 146.848 19.0716C146.84 19.0364 146.822 19.0042 146.797 18.9785C146.796 18.9732 146.794 18.9681 146.79 18.9637C146.787 18.9592 146.783 18.9555 146.779 18.9527C146.767 18.937 146.752 18.9239 146.735 18.9139C146.561 18.7839 146.358 18.7011 146.143 18.6735C145.946 18.6321 145.737 18.6089 145.494 18.5675C145.81 18.2255 146.088 17.8492 146.321 17.4457C146.627 16.9134 146.809 16.3192 146.854 15.707C146.898 15.0949 146.805 14.4805 146.58 13.9095C146.421 13.4749 146.22 13.0575 145.977 12.6635C145.889 12.524 145.802 12.387 145.706 12.2474C146.029 12.3818 146.272 12.4619 146.481 12.5576L146.68 12.6429C146.867 12.7385 147.055 12.8419 147.226 12.9479C147.396 13.0539 147.626 13.2064 147.813 13.333C147.961 13.4217 148.105 13.5193 148.242 13.6251C148.332 13.6909 148.419 13.7626 148.5 13.8397C148.697 13.9828 148.881 14.1419 149.051 14.3153C149.193 14.4446 149.309 14.5738 149.449 14.7134C149.83 15.1207 150.16 15.573 150.431 16.0601C150.567 16.2862 150.685 16.5221 150.785 16.7658C150.829 16.8589 150.863 16.9494 150.896 17.0424C150.948 17.1872 150.997 17.3423 151.049 17.4896C151.051 17.4937 151.052 17.4981 151.052 17.5025C151.052 17.507 151.051 17.5114 151.049 17.5155C151.101 17.6649 151.142 17.8178 151.173 17.973C151.173 17.973 151.173 17.9988 151.191 18.0273C151.222 18.1824 151.256 18.3452 151.279 18.5107C151.306 18.642 151.323 18.775 151.331 18.9087C151.354 19.1 151.377 19.2991 151.39 19.5007C151.399 19.5814 151.399 19.6629 151.39 19.7437C151.395 19.7539 151.397 19.7649 151.397 19.776C151.397 19.7871 151.395 19.7981 151.39 19.8083C151.398 19.89 151.398 19.9722 151.39 20.0539C151.386 20.0804 151.386 20.1074 151.39 20.134C151.388 20.1624 151.395 20.2167 151.393 20.2632L151.382 20.2658ZM158.434 14.6384C158.426 14.6854 158.413 14.7313 158.395 14.7754C158.374 14.8534 158.323 14.9201 158.253 14.9615C158.181 14.9987 158.101 15.0194 158.02 15.0221C157.938 15.0248 157.857 15.0094 157.783 14.9771C157.736 14.9546 157.692 14.9296 157.648 14.9021C157.496 14.8168 157.354 14.7315 157.209 14.6436C157.064 14.5557 156.917 14.4368 156.782 14.336C156.507 14.125 156.248 13.8943 156.007 13.6458C155.857 13.4881 155.725 13.3305 155.593 13.165C155.26 12.7488 154.963 12.2965 154.601 11.8984C154.54 11.8186 154.473 11.7442 154.399 11.6761C154.293 11.5649 154.177 11.4538 154.06 11.3504C153.705 11.0388 153.297 10.7929 152.856 10.624C152.714 10.5546 152.555 10.5283 152.398 10.5485C152.241 10.5687 152.094 10.6345 151.974 10.7378L151.892 10.8438C151.825 10.9676 151.785 11.1035 151.772 11.2433C151.759 11.3831 151.774 11.5242 151.817 11.658C151.915 11.9665 152.071 12.2533 152.277 12.5033C152.512 12.8264 152.535 13.0358 152.233 13.1262C152.177 13.1469 152.119 13.1608 152.06 13.1676C151.987 13.1715 151.915 13.1715 151.842 13.1676H151.77C151.67 13.158 151.571 13.1434 151.473 13.1237C151.366 13.1051 151.263 13.072 151.165 13.0254C150.857 12.8956 150.566 12.7271 150.299 12.524C150.215 12.4579 150.136 12.3863 150.061 12.3094C149.912 12.1517 149.759 12.0121 149.601 11.8726C149.444 11.7428 149.28 11.6212 149.11 11.5081C148.942 11.4047 148.772 11.2987 148.593 11.2134C148.419 11.1229 148.24 11.0435 148.056 10.9756C147.214 10.6715 146.324 10.526 145.429 10.5465C145.285 10.5465 145.14 10.5465 144.995 10.5284C144.978 10.4354 144.967 10.3412 144.964 10.2466C144.947 10.1205 144.947 9.99274 144.964 9.86665C144.96 9.83662 144.96 9.80621 144.964 9.77618C144.964 9.71682 144.978 9.6583 145.005 9.60558C145.022 9.53469 145.046 9.46547 145.075 9.39878C145.071 9.38704 145.071 9.37433 145.075 9.36259C145.121 9.25627 145.182 9.15704 145.256 9.06791C145.426 8.85892 145.629 8.67981 145.858 8.538C146.246 8.29245 146.654 8.08139 147.078 7.90727C147.257 7.83042 147.44 7.7648 147.626 7.71082C148.118 7.54693 148.629 7.44702 149.146 7.41355C149.309 7.40063 149.482 7.39546 149.645 7.39804C149.703 7.39288 149.761 7.39288 149.818 7.39804C150.043 7.41097 150.261 7.42648 150.488 7.44974C150.594 7.44974 150.713 7.48335 150.821 7.50403C150.886 7.50503 150.949 7.51548 151.01 7.53504L151.307 7.59708C151.514 7.64619 151.731 7.70565 151.938 7.77544C152.011 7.79612 152.08 7.81422 152.153 7.84265C152.452 7.94281 152.745 8.05931 153.032 8.19162C153.228 8.28726 153.399 8.3648 153.577 8.4682C153.726 8.53311 153.869 8.60915 154.006 8.69567C154.166 8.79132 154.345 8.89472 154.497 8.99812C154.533 9.01621 154.559 9.03689 154.603 9.06274C154.647 9.08859 154.621 9.06273 154.632 9.08341C154.66 9.10239 154.687 9.12403 154.712 9.14804C154.745 9.16038 154.775 9.17979 154.8 9.20491C154.912 9.27485 155.02 9.3535 155.12 9.44014C155.128 9.4398 155.136 9.44217 155.143 9.44685C155.149 9.45153 155.154 9.45827 155.156 9.46599C155.29 9.56129 155.418 9.6649 155.539 9.77618C155.544 9.77722 155.549 9.77936 155.554 9.78248C155.558 9.78559 155.562 9.78961 155.565 9.79427C155.648 9.85455 155.725 9.92296 155.795 9.99848C155.82 10.0115 155.842 10.0311 155.857 10.0554C155.876 10.0788 155.896 10.1004 155.919 10.12H155.937C155.937 10.12 155.937 10.12 155.955 10.1458C156.002 10.1871 156.046 10.2312 156.087 10.2777C156.167 10.3526 156.247 10.4353 156.327 10.5103C156.459 10.6473 156.586 10.7869 156.705 10.9265C156.824 11.0661 156.963 11.2496 157.092 11.415C157.169 11.5122 157.239 11.6141 157.302 11.72C157.403 11.8561 157.496 11.9977 157.581 12.144C157.591 12.1589 157.599 12.1745 157.607 12.1905C157.635 12.2218 157.656 12.2588 157.669 12.2991C157.746 12.4387 157.824 12.5576 157.894 12.7049C157.964 12.8522 158.033 12.9634 158.101 13.1159C158.293 13.5109 158.397 13.9432 158.406 14.3825C158.428 14.4652 158.441 14.5502 158.444 14.6358L158.434 14.6384Z" fill="tomato"/>
</svg>
