<svg xmlns="http://www.w3.org/2000/svg" width="20" height="20" viewBox="0 0 20 20" fill="none">
  <path d="M3.18785 8.91008C3.04779 8.77025 2.86143 8.71191 2.65134 8.71191C2.54689 8.71191 2.42997 8.72366 2.32552 8.77025C2.30178 8.78191 2.26676 8.78191 2.24362 8.80516C2.11542 8.8635 1.98723 8.96841 1.8709 9.085L1.90592 8.73525H1.48633C1.47446 8.84016 1.47446 8.93341 1.4626 9.03833C1.45132 9.13158 1.42758 9.22475 1.4163 9.32975L0.833496 11.8705H1.27624L1.54449 10.705C1.6258 10.8216 1.73085 10.9147 1.8359 10.9731C1.95222 11.0313 2.08041 11.0663 2.24362 11.0663C2.26676 11.0663 2.2905 11.0663 2.31365 11.0663C2.47685 11.0547 2.6282 11.008 2.76825 10.9265C2.93146 10.8332 3.07093 10.705 3.17598 10.5185C3.26915 10.3787 3.33919 10.2038 3.3742 10.0173C3.42109 9.81925 3.44423 9.64441 3.42109 9.4695C3.39735 9.2365 3.32732 9.03833 3.18785 8.91008ZM2.94274 9.92408C2.89645 10.0873 2.83829 10.2271 2.76825 10.3553C2.69823 10.4952 2.60505 10.5884 2.48814 10.6584C2.44185 10.6817 2.38368 10.705 2.32552 10.7283C2.26676 10.7399 2.19673 10.7517 2.1273 10.7517C1.98723 10.7517 1.88219 10.705 1.80088 10.6351C1.71898 10.5535 1.66082 10.4486 1.66082 10.3203C1.64895 10.2038 1.66081 10.064 1.7077 9.8775C1.754 9.70266 1.81215 9.5395 1.88218 9.41125C1.95221 9.27141 2.0454 9.1665 2.15044 9.09658C2.2086 9.06166 2.26676 9.02666 2.32552 9.015C2.37181 9.00333 2.42997 8.99175 2.48814 8.99175C2.6282 8.99175 2.74452 9.03833 2.83829 9.13158C2.9196 9.22475 2.97776 9.34133 2.98963 9.49283C2.98963 9.60941 2.97775 9.76091 2.94274 9.92408Z" fill="#1F53A3"/>
  <path d="M13.91 8.87492C13.7818 8.74667 13.6068 8.67676 13.3853 8.67676C13.2459 8.67676 13.1058 8.70001 12.9895 8.75834C12.9777 8.77001 12.9545 8.77001 12.9308 8.78167C12.8263 8.83992 12.7331 8.92151 12.6393 9.00309L12.6513 8.72334H12.0222C12.0103 8.87492 11.9633 9.10801 11.8939 9.42267L11.3574 11.8586H12.0566L12.3248 10.6581C12.3948 10.7863 12.488 10.8796 12.6043 10.9378C12.6981 10.9845 12.8026 11.0194 12.9308 11.0311C12.9545 11.0311 12.9895 11.0428 13.0127 11.0428C13.3623 11.0428 13.6536 10.8796 13.8631 10.5649C14.0851 10.2503 14.1664 9.86559 14.1201 9.41101C14.1201 9.18951 14.0382 9.00309 13.91 8.87492ZM13.4203 9.86559C13.3853 10.0171 13.3391 10.1569 13.2809 10.2852C13.2222 10.4018 13.164 10.4833 13.0827 10.5416C13.0358 10.5765 12.9895 10.5998 12.9426 10.6115C12.9076 10.6232 12.8726 10.6232 12.8376 10.6232C12.7213 10.6232 12.6281 10.5765 12.5581 10.5066C12.488 10.4367 12.453 10.3202 12.4298 10.1803C12.4067 9.90051 12.453 9.65576 12.5931 9.42267C12.6863 9.25951 12.8026 9.15459 12.9426 9.10801C12.9895 9.09634 13.0358 9.09634 13.0827 9.09634C13.1872 9.09634 13.2809 9.13126 13.3391 9.20126C13.3973 9.25951 13.4435 9.35276 13.4435 9.48092C13.4673 9.58584 13.4554 9.71409 13.4203 9.86559Z" fill="#1F53A3"/>
  <path d="M16.2186 8.85183C16.0553 8.74691 15.8452 8.71191 15.5426 8.71191C15.4494 8.71191 15.3557 8.71191 15.2743 8.72366C15.0992 8.74691 14.9597 8.79358 14.8316 8.87516C14.6684 8.99175 14.5633 9.15483 14.5515 9.36466H15.2162C15.2274 9.29475 15.2512 9.2365 15.2862 9.2015C15.2975 9.17816 15.3093 9.1665 15.3325 9.15483C15.3794 9.10825 15.4607 9.085 15.5538 9.085C15.6357 9.085 15.7058 9.09658 15.7521 9.13158C15.799 9.1665 15.8222 9.21316 15.834 9.28308C15.834 9.318 15.834 9.353 15.8221 9.388C15.8221 9.43458 15.8102 9.49283 15.7871 9.58608C15.764 9.58608 15.7402 9.58608 15.7171 9.58608C15.6939 9.58608 15.6471 9.58608 15.6007 9.58608C15.4957 9.58608 15.3794 9.58608 15.2862 9.59775C14.9598 9.62108 14.7034 9.70266 14.5165 9.81925C14.2838 9.97075 14.1669 10.1922 14.2019 10.4719C14.2137 10.6584 14.2838 10.7982 14.412 10.9032C14.5402 11.008 14.6915 11.0663 14.9017 11.0663C15.0411 11.0663 15.158 11.0313 15.2743 10.9731L15.2862 10.9614C15.3907 10.9147 15.4838 10.8216 15.5657 10.705C15.5657 10.7632 15.5538 10.8099 15.5538 10.8682C15.5538 10.9265 15.5538 10.9731 15.5538 11.0313H16.1948C16.1948 10.9265 16.1948 10.8332 16.2067 10.7399C16.2186 10.6351 16.2298 10.5418 16.2536 10.4602L16.4281 9.691C16.4399 9.62108 16.4631 9.5395 16.475 9.48125C16.4862 9.41125 16.4862 9.353 16.475 9.29475C16.4631 9.09658 16.3699 8.95666 16.2186 8.85183ZM15.4838 10.4486C15.4144 10.5185 15.3443 10.5768 15.2862 10.6117C15.2393 10.6351 15.1812 10.6467 15.123 10.6467C15.053 10.6467 14.9829 10.6351 14.9479 10.5884C14.9017 10.5418 14.8779 10.4836 14.8779 10.4137C14.8666 10.2737 14.9247 10.1572 15.0642 10.064C15.1342 10.0173 15.2043 9.98233 15.2975 9.95908C15.3794 9.93575 15.4838 9.92408 15.5889 9.92408C15.6239 9.92408 15.6357 9.92408 15.6589 9.92408C15.6707 9.92408 15.6939 9.92408 15.7058 9.93575C15.6707 10.1456 15.5889 10.3203 15.4838 10.4486Z" fill="#1F53A3"/>
  <path d="M18.5137 8.72363L17.6282 10.297L17.43 8.72363H16.7422L17.1505 11.0196L16.5908 11.8588H17.3368L17.7446 11.1129L19.1665 8.72363H18.5137Z" fill="#1F53A3"/>
  <path d="M5.70543 9.43434C5.68169 9.20126 5.60038 9.01476 5.4253 8.87492C5.2621 8.74667 5.0526 8.67676 4.78435 8.67676C4.71431 8.67676 4.63301 8.67676 4.56298 8.68842C4.44665 8.71176 4.30659 8.74667 4.20154 8.78167C4.03833 8.85159 3.89886 8.95651 3.79382 9.09634C3.6775 9.25951 3.59559 9.44601 3.53743 9.65576C3.4674 9.87726 3.45553 10.0753 3.4674 10.2735C3.47927 10.5183 3.57245 10.7048 3.74694 10.8446C3.91015 10.9845 4.12023 11.0544 4.3879 11.0544C4.45792 11.0544 4.52795 11.0428 4.58611 11.0428C4.74932 11.0311 4.90125 10.9961 5.01758 10.9378C5.18079 10.8679 5.32085 10.7398 5.43717 10.5649C5.54222 10.4133 5.61225 10.2269 5.65855 10.0171C5.70543 9.81892 5.72857 9.60917 5.70543 9.43434ZM5.20393 9.93551C5.15764 10.1103 5.09889 10.2735 5.01758 10.4133C4.94755 10.5416 4.85438 10.6348 4.7612 10.6931C4.71431 10.728 4.64487 10.7513 4.57484 10.763C4.52795 10.7747 4.4698 10.7747 4.41164 10.7747C4.2597 10.7747 4.14338 10.728 4.0502 10.6465C3.9683 10.5649 3.91015 10.4483 3.89887 10.2968C3.887 10.1569 3.89887 10.0054 3.94516 9.81892C3.99205 9.63242 4.0502 9.48092 4.12024 9.35276C4.19027 9.21284 4.28344 9.11967 4.3879 9.03801C4.44665 9.00309 4.51668 8.97976 4.57484 8.96809C4.633 8.95651 4.6793 8.94476 4.73805 8.94476C4.90126 8.94476 5.01759 8.99142 5.0989 9.07301C5.1808 9.14292 5.23895 9.27117 5.25082 9.44601C5.2621 9.59751 5.25082 9.74901 5.20393 9.93551Z" fill="#1F53A3"/>
  <path d="M7.46507 8.80498C7.33687 8.73506 7.15052 8.68848 6.88227 8.68848C6.60273 8.68848 6.3695 8.75839 6.20629 8.88656C6.04308 9.02648 5.97364 9.17798 5.98491 9.37614C5.99679 9.49264 6.04307 9.59756 6.14812 9.69081C6.2413 9.78406 6.40451 9.88889 6.63774 9.99381C6.8241 10.0754 6.94102 10.1453 6.99918 10.192C7.05734 10.2386 7.09236 10.2968 7.09236 10.3667C7.10422 10.4717 7.05735 10.5649 6.9523 10.6466C6.84785 10.7165 6.71906 10.7514 6.54457 10.7514C6.40451 10.7514 6.3232 10.7398 6.25317 10.6815C6.18314 10.6348 6.14812 10.5766 6.14812 10.4833C6.13685 10.46 6.13685 10.4367 6.14812 10.4017C6.14812 10.3667 6.15999 10.3318 6.17127 10.2968H5.71726C5.70538 10.3435 5.70539 10.4017 5.69351 10.4367C5.68224 10.4833 5.68224 10.53 5.69351 10.5649C5.70539 10.7281 5.78669 10.8563 5.92675 10.9496C6.07809 11.0311 6.27631 11.0894 6.52142 11.0894C6.83596 11.0894 7.10422 11.0195 7.29058 10.868C7.48881 10.7281 7.57011 10.5416 7.55824 10.3318C7.54696 10.2036 7.50008 10.0987 7.41877 10.0171C7.34874 9.93556 7.16239 9.81898 6.89413 9.70239C6.69591 9.60914 6.57958 9.53931 6.52142 9.49264C6.46266 9.44606 6.43952 9.38773 6.42825 9.32948C6.42825 9.20131 6.46267 9.11964 6.54457 9.06139C6.6146 9.00314 6.73092 8.96814 6.87099 8.96814C6.99918 8.96814 7.09236 8.99148 7.15052 9.03806C7.22056 9.08473 7.25556 9.14298 7.25556 9.23623C7.25556 9.24789 7.25556 9.28281 7.25556 9.29448C7.25556 9.30614 7.25556 9.34114 7.25556 9.36439H7.66329C7.67517 9.30614 7.67516 9.25956 7.67516 9.23623C7.67516 9.20131 7.67516 9.17798 7.67516 9.15464C7.66328 8.97981 7.59326 8.87489 7.46507 8.80498Z" fill="#1F53A3"/>
  <path d="M8.73533 10.7401C8.63091 10.7401 8.56091 10.7285 8.514 10.6935C8.46775 10.6702 8.444 10.6235 8.444 10.5536C8.43266 10.5304 8.444 10.4954 8.45583 10.4488C8.45583 10.4021 8.46775 10.3439 8.50275 10.2506L8.75908 9.05012H9.24875L9.31816 8.75879H8.82916L8.95733 8.12939L8.514 8.23426L8.39766 8.75879H7.98995L7.91992 9.05012H8.3395L8.08313 10.1924C8.07126 10.2973 8.03624 10.4021 8.03624 10.507C8.02437 10.6003 8.02438 10.6702 8.02438 10.7169C8.03625 10.845 8.07126 10.9383 8.16444 10.9849C8.23446 11.0431 8.36266 11.0665 8.53775 11.0665C8.59591 11.0665 8.66591 11.0549 8.73533 11.0549C8.80541 11.0431 8.87541 11.0431 8.95733 11.0315L9.02675 10.6935C8.9805 10.7052 8.93358 10.7169 8.88733 10.7169C8.81725 10.7285 8.77041 10.7401 8.73533 10.7401Z" fill="#1F53A3"/>
  <path d="M9.71465 9.93556H10.3787H11.358C11.3811 9.83064 11.4043 9.73739 11.4043 9.64414C11.4161 9.55089 11.4161 9.45764 11.4043 9.37614C11.393 9.13131 11.2992 8.95656 11.1479 8.85156C10.9966 8.74673 10.7752 8.68848 10.4719 8.68848C10.4369 8.68848 10.4137 8.68848 10.3787 8.68848C10.2036 8.70006 10.0523 8.73506 9.91231 8.81664C9.74965 8.88656 9.62148 9.01481 9.5164 9.16631C9.42323 9.32948 9.34131 9.51598 9.29506 9.73739C9.23631 9.95889 9.22506 10.1686 9.23631 10.3435C9.24815 10.5766 9.34131 10.7631 9.49265 10.8913C9.6559 11.0195 9.86598 11.0894 10.1342 11.0894C10.2156 11.0894 10.2975 11.0777 10.3787 11.0777C10.5651 11.0544 10.7283 10.9961 10.8565 10.9029C11.0547 10.7747 11.1711 10.5999 11.2298 10.3785H10.7401C10.6933 10.5066 10.6232 10.5999 10.5188 10.6698C10.4719 10.6931 10.4256 10.7165 10.3787 10.7398C10.3206 10.7631 10.2506 10.7747 10.1806 10.7747C10.0173 10.7747 9.90098 10.7281 9.80781 10.6581C9.7259 10.5882 9.66773 10.4717 9.6559 10.3318C9.6559 10.2852 9.6559 10.227 9.66773 10.1686C9.6909 10.0637 9.6909 10.0055 9.71465 9.93556ZM10.0411 9.11964C10.1342 9.01481 10.2506 8.96814 10.3906 8.95656C10.4137 8.95656 10.4488 8.94481 10.4719 8.94481C10.6233 8.94481 10.7401 8.97981 10.8334 9.04973C10.9146 9.11964 10.9734 9.21289 10.9734 9.32948C10.9847 9.36439 10.9847 9.39939 10.9734 9.43431C10.9734 9.48098 10.9616 9.53931 10.9616 9.60914H10.3906H9.80781C9.84281 9.39939 9.92415 9.22456 10.0411 9.11964Z" fill="#1F53A3"/>
</svg>