<svg xmlns="http://www.w3.org/2000/svg" width="20" height="20" viewBox="0 0 20 20" fill="none">
  <mask id="mask0_3540_28357" style="mask-type:luminance" maskUnits="userSpaceOnUse" x="0" y="0" width="20" height="20">
    <path d="M20 0H0V20H20V0Z" fill="white"/>
  </mask>
  <g mask="url(#mask0_3540_28357)">
    <path d="M20.0002 10C20.0002 13.4164 17.2363 16.1803 13.82 16.1803C12.3779 16.1803 11.056 15.6825 10.0088 14.8585C11.4509 13.7254 12.3607 11.9743 12.3607 10C12.3607 8.02582 11.4337 6.27476 10.0088 5.14172C11.056 4.31768 12.3779 3.81982 13.82 3.81982C17.2363 3.81982 20.0002 6.60093 20.0002 10Z" fill="#F79E1B"/>
    <path d="M10.0087 5.1416C11.4337 6.27464 12.3607 8.02571 12.3607 9.99993C12.3607 11.9742 11.4508 13.7253 10.0087 14.8583H9.9915C8.56666 13.7424 7.63965 11.9742 7.63965 10C7.63965 8.02574 8.56667 6.27468 9.99158 5.14163C9.99158 5.14162 9.99158 5.14164 9.99158 5.14163L10.0087 5.1416Z" fill="#FF5F00"/>
    <path d="M7.63948 10.0001C7.63948 8.02583 8.5665 6.27477 9.99142 5.14172C8.94417 4.31769 7.62232 3.81982 6.18026 3.81982C2.76395 3.81982 0 6.58377 0 10.0001C0 13.4164 2.76395 16.1804 6.18026 16.1804C7.62232 16.1804 8.94417 15.6824 9.99133 14.8584C8.5665 13.7425 7.63948 11.9743 7.63948 10.0001Z" fill="#EB001B"/>
  </g>
</svg>