<svg xmlns="http://www.w3.org/2000/svg" width="20" height="20" viewBox="0 0 20 20" fill="none">
  <path d="M7.25521 16.9917L7.51517 15.3405L6.93609 15.3271H4.1709L6.09257 3.14249C6.09853 3.10571 6.11792 3.07141 6.14625 3.04705C6.17458 3.02269 6.21087 3.00928 6.24864 3.00928H10.9112C12.459 3.00928 13.5272 3.33138 14.0849 3.96713C14.3463 4.26537 14.5129 4.57703 14.5934 4.92C14.6779 5.27988 14.6794 5.70984 14.5969 6.23425L14.5909 6.27253V6.60854L14.8524 6.75667C15.0726 6.87348 15.2476 7.00719 15.3817 7.16029C15.6054 7.41529 15.7501 7.73937 15.8112 8.1236C15.8743 8.51874 15.8535 8.98899 15.7501 9.52133C15.6307 10.1337 15.4379 10.6671 15.1775 11.1035C14.9379 11.5057 14.6327 11.8392 14.2703 12.0977C13.9243 12.3432 13.5132 12.5296 13.0485 12.6489C12.5982 12.7662 12.0847 12.8253 11.5215 12.8253H11.1587C10.8992 12.8253 10.6472 12.9188 10.4493 13.0863C10.251 13.2573 10.1198 13.4909 10.0796 13.7464L10.0522 13.8951L9.59292 16.8054L9.572 16.9122C9.56658 16.9461 9.55708 16.9629 9.54317 16.9744C9.53075 16.9848 9.51292 16.9917 9.4955 16.9917H7.25521Z" fill="#253B80"/>
  <path d="M15.1001 6.31104C15.0862 6.40001 15.0703 6.49098 15.0524 6.58443C14.4375 9.74134 12.3339 10.8318 9.64724 10.8318H8.27935C7.95079 10.8318 7.67393 11.0704 7.62273 11.3945L6.92236 15.8363L6.72404 17.0954C6.69073 17.3082 6.85476 17.5 7.06949 17.5H9.49566C9.78299 17.5 10.0271 17.2913 10.0722 17.0079L10.0962 16.8847L10.5529 13.9858L10.5822 13.8267C10.627 13.5423 10.8716 13.3336 11.1588 13.3336H11.5217C13.8723 13.3336 15.7125 12.3793 16.2503 9.6175C16.475 8.46384 16.3587 7.50052 15.7642 6.82302C15.5842 6.61872 15.3611 6.44922 15.1001 6.31104Z" fill="#179BD7"/>
  <path d="M14.4563 6.05468C14.3623 6.02734 14.2654 6.00249 14.166 5.98013C14.0661 5.95825 13.9637 5.93887 13.8583 5.92197C13.4894 5.86232 13.0853 5.83398 12.6524 5.83398H8.99792C8.908 5.83398 8.8225 5.85437 8.74592 5.89115C8.57742 5.97217 8.45217 6.13173 8.42184 6.32708L7.64445 11.2511L7.62207 11.3946C7.67327 11.0706 7.95014 10.832 8.2787 10.832H9.64667C12.3333 10.832 14.4368 9.74089 15.0518 6.58456C15.0702 6.49111 15.0855 6.40014 15.0994 6.31117C14.9438 6.22866 14.7753 6.15808 14.5939 6.09793C14.5492 6.08302 14.503 6.0686 14.4563 6.05468Z" fill="#222D65"/>
  <path d="M8.42233 6.32692C8.45266 6.13157 8.57791 5.97202 8.74641 5.89149C8.82349 5.85471 8.9085 5.83433 8.9985 5.83433H12.6529C13.0858 5.83433 13.49 5.86266 13.8587 5.92231C13.9642 5.93921 14.0666 5.95859 14.1665 5.98047C14.2659 6.00283 14.3628 6.02768 14.4567 6.05502C14.5035 6.06894 14.5497 6.08336 14.5949 6.09777C14.7763 6.15792 14.9449 6.229 15.1005 6.31102C15.2834 5.1444 15.099 4.35008 14.4682 3.63082C13.7728 2.839 12.5177 2.5 10.9117 2.5H6.24918C5.92111 2.5 5.64126 2.73859 5.59056 3.06318L3.64852 15.3731C3.61024 15.6166 3.79814 15.8363 4.04369 15.8363H6.9222L7.64494 11.2508L8.42233 6.32692Z" fill="#253B80"/>
</svg>