<svg xmlns="http://www.w3.org/2000/svg" width="20" height="20" viewBox="0 0 20 20" fill="none">
  <path d="M14.5397 7.03043C14.2201 6.90365 13.7133 6.76367 13.0865 6.76367C11.4866 6.76367 10.3599 7.61684 10.353 8.83662C10.3397 9.73654 11.1597 10.2365 11.7729 10.5365C12.3998 10.8431 12.6128 11.0433 12.6128 11.3165C12.6064 11.7364 12.1063 11.9298 11.6399 11.9298C10.993 11.9298 10.6464 11.83 10.1198 11.5965L9.90635 11.4965L9.67969 12.903C10.0597 13.076 10.7598 13.2297 11.4866 13.2365C13.1865 13.2365 14.2933 12.3965 14.3064 11.0966C14.3129 10.3833 13.8799 9.83679 12.9464 9.39012C12.3798 9.10346 12.0328 8.91012 12.0328 8.61679C12.0394 8.35012 12.3263 8.077 12.9659 8.077C13.4926 8.06362 13.8796 8.19022 14.1728 8.31691L14.3194 8.38346L14.5397 7.03043Z" fill="#3362AB"/>
  <path d="M8.66654 13.1432H7.04639L8.05974 6.87744H9.6798L8.66654 13.1432Z" fill="#3362AB"/>
  <path fill-rule="evenodd" clip-rule="evenodd" d="M18.693 6.87744H17.4398C17.0534 6.87744 16.7598 6.99067 16.593 7.39732L14.1865 13.1431H15.8864C15.8864 13.1431 16.1664 12.3698 16.2265 12.2032H18.3066C18.3531 12.4232 18.4999 13.1431 18.4999 13.1431H20L18.693 6.87744ZM16.6931 10.9235C16.8265 10.5635 17.3399 9.1704 17.3399 9.1704C17.3373 9.17573 17.3581 9.11782 17.3893 9.03157L17.3896 9.03048C17.4361 8.90157 17.5054 8.70948 17.5531 8.57048L17.6664 9.1104C17.6664 9.1104 17.9731 10.6102 18.0398 10.9235H16.6931Z" fill="#3362AB"/>
  <path d="M5.69331 6.87744L4.10666 11.1501L3.93327 10.2836L3.36662 7.40414C3.27332 7.00396 2.98663 6.89064 2.63332 6.87744H0.0266671L0 7.00404C0.635752 7.16662 1.20437 7.40088 1.7026 7.69217L3.14663 13.1366H4.85989L7.40647 6.87744H5.69331Z" fill="#3362AB"/>
</svg>